<?xml version="1.0" standalone="no"?><!DOCTYPE svg PUBLIC "-//W3C//DTD SVG 1.1//EN" "http://www.w3.org/Graphics/SVG/1.1/DTD/svg11.dtd"><svg t="1757512424229" class="icon" viewBox="0 0 1024 1024" version="1.1" xmlns="http://www.w3.org/2000/svg" p-id="8111" xmlns:xlink="http://www.w3.org/1999/xlink" width="300" height="300"><path d="M695.145107 0.127984c20.221472 0 36.603425 16.381952 36.603424 36.603425v170.666666a36.603425 36.603425 0 0 1-73.206849 0V36.731409A36.667417 36.667417 0 0 1 695.145107 0.127984zM280.860892 0.127984c20.15748 0 36.603425 16.381952 36.603425 36.603425v170.666666a36.603425 36.603425 0 0 1-73.206849 0V36.731409c0-20.221472 16.381952-36.603425 36.603424-36.603425zM183.273091 755.745532a36.603425 36.603425 0 0 0 0 73.206849h268.126484a36.603425 36.603425 0 0 0 0-73.206849h-268.126484zM169.002875 585.078865c-12.350456 0-22.333208 16.445944-22.333209 36.603425 0 20.221472 9.982752 36.603425 22.333209 36.603424h371.345581c12.286464 0 22.269216-16.381952 22.269217-36.603424 0-20.15748-9.982752-36.603425-22.269217-36.603425H169.002875z m14.270216-170.538683a36.603425 36.603425 0 0 0 0 73.20685H622.066242a36.603425 36.603425 0 0 0 0-73.20685H183.273091z m792.220972 255.392076A262.367204 262.367204 0 1 0 588.918385 1024H49.209849a48.761905 48.761905 0 0 1-48.825897-48.761905V146.413698c0-26.87664 21.821272-48.825897 48.825897-48.825896h146.285714v109.682289a85.301337 85.301337 0 0 0 170.538683 0V97.587802H609.907762v109.682289a85.301337 85.301337 0 0 0 170.538682 0V97.587802h146.285714c26.87664 0 48.761905 21.75728 48.761905 48.825896v523.51856z" p-id="8112"></path><path d="M923.724534 739.875516c-0.767904 51.449569-23.165104 73.270841-23.165104 73.270841C898.447694 698.728659 777.11886 576.055993 777.11886 576.055993 817.241845 652.014498 639.984002 747.554556 639.984002 884.56143c0 85.941257 113.84177 149.101362 170.858643 138.222722 246.625172-46.778153 112.88189-282.844644 112.881889-282.844644zM799.964004 988.420447s-127.792026-58.552681-3.583552-188.328458c0 0 61.688289 58.232721 49.849769 112.433945 0 0 17.405824 1.727784 39.547057-27.772528 0 0 5.11936 82.357705-85.813274 103.667041z" p-id="8113"></path></svg>