<?xml version="1.0" standalone="no"?><!DOCTYPE svg PUBLIC "-//W3C//DTD SVG 1.1//EN" "http://www.w3.org/Graphics/SVG/1.1/DTD/svg11.dtd"><svg t="1757512458848" class="icon" viewBox="0 0 1024 1024" version="1.1" xmlns="http://www.w3.org/2000/svg" p-id="9137" xmlns:xlink="http://www.w3.org/1999/xlink" width="300" height="300"><path d="M413.538462 567.138462c-3.938462 0-7.876923 0-11.815385-3.938462-7.876923-3.938462-11.815385-11.815385-7.876923-19.692308l15.753846-102.4-74.830769-70.892307c0-3.938462-3.938462-11.815385 0-19.692308s7.876923-11.815385 15.753846-15.753846l102.4-15.753846 39.384615-82.707693c7.876923-15.753846 27.569231-15.753846 35.446154 0l43.323077 86.646154 98.461539 15.753846c7.876923 0 15.753846 7.876923 15.753846 15.753846 3.938462 7.876923 0 15.753846-3.938462 23.63077l-74.830769 74.830769 19.692308 98.461538c0 7.876923 0 15.753846-7.876923 19.692308-7.876923 3.938462-15.753846 3.938462-23.63077 0L512 515.938462l-86.646154 47.261538c-3.938462 3.938462-7.876923 3.938462-11.815384 3.938462z m-23.63077-196.923077l51.2 51.2c3.938462 3.938462 7.876923 11.815385 7.876923 19.692307l-11.815384 70.892308 66.953846-35.446154c7.876923-3.938462 15.753846-3.938462 19.692308 0l63.015384 31.507692-11.815384-70.892307c0-7.876923 0-15.753846 7.876923-19.692308l51.2-51.2-70.892308-11.815385c-7.876923 0-11.815385-3.938462-15.753846-11.815384l-31.507692-63.015385-31.507693 63.015385c-3.938462 7.876923-7.876923 11.815385-15.753846 11.815384l-78.769231 15.753847z" fill="" p-id="9138"></path><path d="M189.046154 972.8c-3.938462 0-11.815385 0-15.753846-3.938462-7.876923-3.938462-15.753846-15.753846-15.753846-23.630769V82.707692c0-15.753846 15.753846-27.569231 27.56923-27.56923H827.076923c15.753846 0 27.569231 15.753846 27.569231 27.56923v94.523077c0 15.753846-15.753846 27.569231-27.569231 27.569231-15.753846 0-27.569231-11.815385-27.569231-27.569231V114.215385H220.553846v783.753846l279.630769-141.784616c7.876923-3.938462 19.692308-3.938462 23.63077 0l275.692307 141.784616V374.153846c0-15.753846 15.753846-27.569231 27.569231-27.569231 15.753846 0 27.569231 15.753846 27.569231 27.569231V945.230769c0 11.815385-3.938462 19.692308-15.753846 23.630769-7.876923 3.938462-19.692308 7.876923-27.569231 0l-307.2-157.538461-311.138462 157.538461c7.876923 0 0 3.938462-3.938461 3.938462z" fill="" p-id="9139"></path></svg>