<?xml version="1.0" standalone="no"?><!DOCTYPE svg PUBLIC "-//W3C//DTD SVG 1.1//EN" "http://www.w3.org/Graphics/SVG/1.1/DTD/svg11.dtd"><svg t="1757512517342" class="icon" viewBox="0 0 1024 1024" version="1.1" xmlns="http://www.w3.org/2000/svg" p-id="16776" xmlns:xlink="http://www.w3.org/1999/xlink" width="300" height="300"><path d="M692.99 195.59c36.376 22.046 65.643 167.343-24.511 172.825-4.003 0.26-7.89 0.377-11.632 0.377-184.978 0-108.196-287.286-108.196-287.286-262.225 78.262-199.83 289.985-199.83 289.985s-68.747-27.992-49.66-139.293c-111.126 71.3-84.876 256.365-84.876 256.365s-68.514-29.732-52.735-123.541c-30.92 56.39-44.526 113.07-44.526 181.96 0 218.424 176.828 395.513 394.96 395.513 218.163 0 394.99-177.089 394.99-395.512 0-153.072-86.933-285.662-213.984-351.392zM540.992 634.614h71.503v-29.79h-71.503v29.79z m-47.687-145.007v23.844H636.34c17.2 1.334 25.149-6.614 23.844-23.844H493.305z m47.687 81.452h71.503v-27.817h-71.503v27.817zM493.305 463.79h166.878v-25.816H493.305v25.816z m-13.894 286.039c-3.974-6.614-6.643-11.922-7.948-15.896-13.256 6.642-29.79 11.921-49.66 15.896v43.713c31.792-3.973 66.862-13.923 105.296-29.79h-39.74c-1.335-3.974-3.975-8.614-7.948-13.923zM312.56 465.763c1.306 51.662 6.586 98.044 15.867 139.06H290.69c-7.948-38.406-12.59-84.73-13.895-139.06h35.767z m236.38 379.412h-31.793v-33.764h11.922c17.2 1.306 25.149-6.642 23.844-23.844V686.274h51.661v105.267c1.278 37.071-17.229 54.94-55.635 53.634z m192.694-176.797h-83.424c17.172 21.203 44.99 37.767 83.424 49.66v33.793c-1.334 0-3.973-0.667-7.948-2.001-23.844-5.28-40.407-10.587-49.66-15.896-3.974 9.282-9.282 19.232-15.896 29.819h-29.79c31.762 3.945 64.86 13.894 99.32 29.79v43.685c-42.41-22.51-82.787-36.433-121.193-41.712V759.78l9.95 1.973c7.948-15.896 13.894-33.097 17.868-51.661-14.59-10.559-27.818-24.482-39.71-41.712h-55.637c-7.948 13.255-19.87 27.18-35.765 41.712h2.001c1.306 14.62 6.614 31.792 15.896 51.661l9.921-5.946v37.738c-37.1 19.87-77.477 33.097-121.162 39.74v-37.767c-27.818-26.454-47.021-54.939-57.608-85.397-14.59 54.302-43.075 99.959-85.426 137.059V799.49c25.149-41.016 41.016-79.45 47.688-115.216 6.585-33.069 9.92-89.37 9.92-168.851V392.259h51.633v95.375c2.64-1.306 6.614-2.64 11.922-3.973 3.973-1.306 13.923-4.641 29.819-9.95v49.66c-11.922 2.669-25.846 5.308-41.742 7.948-1.334 94.04 9.254 161.598 31.792 202.615v-15.867c35.766-13.227 60.916-29.819 75.477-49.688h-79.45v-33.764h75.505v-29.79h-63.583V571.06h63.583v-27.817H439.7V408.155h274.117v77.477c1.306 39.74-15.228 58.943-49.66 57.609v27.817h63.584v33.764h-63.584v29.79h77.478v33.766z" p-id="16777"></path></svg>