<?xml version="1.0" standalone="no"?><!DOCTYPE svg PUBLIC "-//W3C//DTD SVG 1.1//EN" "http://www.w3.org/Graphics/SVG/1.1/DTD/svg11.dtd"><svg t="1745313200562" class="icon" viewBox="0 0 1024 1024" version="1.1" xmlns="http://www.w3.org/2000/svg" p-id="4778" xmlns:xlink="http://www.w3.org/1999/xlink" width="300" height="300"><path d="M511.707429 0C794.331429 0 1024 230.034286 1024 512a38.619429 38.619429 0 0 1-37.668571 37.302857 38.473143 38.473143 0 0 1-40.667429-37.302857 433.883429 433.883429 0 0 0-433.371429-433.737143A433.883429 433.883429 0 0 0 78.921143 512c0 239.396571 194.267429 434.322286 433.371428 434.322286a38.765714 38.765714 0 1 1 0 77.677714C229.668571 1024 0 794.550857 0 512c0-281.965714 229.083429-512 511.707429-512z m284.379428 680.740571l117.76 298.861715h-62.390857l-27.648-72.411429h-123.611429l-25.965714 72.411429h-62.390857l117.76-298.861715h66.56z m209.627429 0v298.861715h-58.294857V680.740571h58.294857z m-243.126857 46.08h-1.243429c0 1.755429-1.170286 5.851429-2.925714 11.702858-1.755429 7.606857-3.510857 12.873143-4.096 15.725714-1.170286 1.755429-14.116571 38.546286-39.497143 109.787428h97.792l-40.667429-110.957714a139.922286 139.922286 0 0 1-9.362285-26.258286zM665.892571 464.749714c1.828571 19.017143-6.144 38.034286-25.6 42.861715-14.116571 41.984-37.814857 87.625143-73.728 113.810285v55.003429l28.672-15.36 33.645715 50.907428-87.259429 61.805715-37.376-49.444572-49.883428 49.444572-74.825143-74.166857 42.422857-42.057143 19.894857 17.334857v-53.394286h0.146286c-33.792-25.746286-57.417143-70.217143-70.729143-109.714286-19.894857-7.387429-30.72-28.16-30.866286-47.030857h325.485714z m-67.291428-213.942857c71.68 3.291429 52.443429 93.110857 46.665143 155.648a44.032 44.032 0 0 1 8.777143 10.093714H351.305143a28.306286 28.306286 0 0 1 6.509714-6.070857c-7.314286-54.345143-8.996571-107.739429 19.382857-135.387428 27.648-27.062857 72.338286-34.889143 117.028572-38.765715 73.581714-6.363429 84.992 13.604571 104.374857 14.482286z" p-id="4779"></path></svg>