<?xml version="1.0" standalone="no"?><!DOCTYPE svg PUBLIC "-//W3C//DTD SVG 1.1//EN" "http://www.w3.org/Graphics/SVG/1.1/DTD/svg11.dtd"><svg t="1744962772785" class="icon" viewBox="0 0 1024 1024" version="1.1" xmlns="http://www.w3.org/2000/svg" p-id="5767" xmlns:xlink="http://www.w3.org/1999/xlink" width="300" height="300"><path d="M400.2 259.7c-26.6 0-53.1 19-53.1 61.6v202.5c0 42.7 26.6 61.6 53.1 61.6 11.9 0 23.7-3.3 35.6-10.4l175.4-101.5c21.3-12.3 33.7-30.8 33.7-51.2 0-19.9-12.3-38.9-33.7-51.2L435.8 269.7c-11.9-6.7-23.7-10-35.6-10z m-8 61.6c0-6.2 0.9-17.1 8.5-17.1 1.9 0 6.6 0.5 13.3 4.3L589.4 410c8.1 4.7 11.9 9.5 11.9 12.8 0 2.8-3.8 8.1-11.9 12.8L414 537.1c-6.6 3.8-11.4 4.3-13.3 4.3-7.1 0-8.5-10.9-8.5-17.1v-203z m338.5-146v68.8c0 2.8 1.9 4.7 4.7 4.7h68.8c2.8 0 4.7-1.9 4.7-4.7v-68.8c0-2.8-1.9-4.7-4.7-4.7h-68.8c-2.8 0-4.7 1.9-4.7 4.7z m0 139.9V384c0 2.8 1.9 4.7 4.7 4.7h68.8c2.8 0 4.7-1.9 4.7-4.7v-68.8c0-2.8-1.9-4.7-4.7-4.7h-68.8c-2.8-0.1-4.7 2.3-4.7 4.7z m0 140.3v68.8c0 2.8 1.9 4.7 4.7 4.7h68.8c2.8 0 4.7-1.9 4.7-4.7v-68.8c0-2.8-1.9-4.7-4.7-4.7h-68.8c-2.8 0-4.7 1.9-4.7 4.7zM214.8 244.1v-68.8c0-2.8-1.9-4.7-4.7-4.7h-68.8c-2.8 0-4.7 1.9-4.7 4.7v68.8c0 2.8 1.9 4.7 4.7 4.7h68.8c2.8 0 4.7-1.9 4.7-4.7z m0 560.4v-68.8c0-2.8-1.9-4.7-4.7-4.7h-68.8c-2.8 0-4.7 1.9-4.7 4.7v68.8c0 2.8 1.9 4.7 4.7 4.7h68.8c2.8 0.1 4.7-1.8 4.7-4.7z m0 0M214.8 664.6v-68.8c0-2.8-1.9-4.7-4.7-4.7h-68.8c-2.8 0-4.7 1.9-4.7 4.7v68.8c0 2.8 1.9 4.7 4.7 4.7h68.8c2.8 0.1 4.7-2.3 4.7-4.7z m0-280.7v-68.8c0-2.8-1.9-4.7-4.7-4.7h-68.8c-2.8 0-4.7 1.9-4.7 4.7v69.2c0 2.8 1.9 4.7 4.7 4.7h68.8c2.8 0.2 4.7-2.2 4.7-5.1z m0 140.4v-68.8c0-2.8-1.9-4.7-4.7-4.7h-68.8c-2.8 0-4.7 1.9-4.7 4.7v68.8c0 2.8 1.9 4.7 4.7 4.7h68.8c2.8 0 4.7-1.9 4.7-4.7z m0 0M539.7 672.1c-0.8-29.8 17.8-54.6 44.4-60.7 25.7-6 53.1 9.5 62.5 36.3 2.4 6.7 5.7 9.2 11.8 10.3 13.2 2.3 26.3 5.1 39.3 8.2 4.9 1.1 8 0.2 11.6-3.8 16-17.7 35.5-23.3 57.6-15.9 5.8 2 9.7 1.3 14.3-2.9 20.9-18.8 42-37.2 63.2-55.5 4.1-3.6 5.7-7.1 5.1-12.8-3-32.2 19.7-60.6 50.5-63.8 28.7-3 56.9 21.1 59.7 51.1 3.2 34.1-17.7 63.5-48.3 66.4-8.3 0.8-16.9-1.9-25.3-2.4-3.6-0.2-8.3-0.1-10.9 2.1-21.8 18.5-43.4 37.4-64.6 56.7-3 2.7-5.3 8.3-5.2 12.5 0.6 31.3-16.4 55.9-44.1 62.7-25.5 6.2-51.5-8.7-63.2-35.6-1.3-3.1-4.8-6.3-7.9-7-15-3.7-30.1-7-45.3-9.6-3.3-0.5-8 1.2-10.6 3.6-16.5 15.3-34.9 20.4-56.2 14.1-3.3-1-8.3 0-11 2.2-22.3 18.3-44.3 37.2-66.5 55.6-4.2 3.5-5.6 7.2-5.3 12.8 2.4 47.6-40.3 77.8-80.7 57.5-2.8-1.4-7.6-1.1-10.3 0.5-19.4 11.6-38.7 23.5-57.6 35.8-2.7 1.8-5.1 6.6-5.3 10.1-1.8 30.7-21.9 55.4-48.1 58.3-29.9 3.3-54.7-14-61.8-44.4-5.3-23.1 0.7-43.4 17.7-59 17.7-16.1 37.9-18.6 59-9 5.1 2.3 8.5 2 13-0.8 18.9-12 37.8-23.8 56.9-35.3 4.7-2.8 6.5-6 6.7-11.8 1.7-39.5 37-65.4 72.4-53.3 5.5 1.9 9.2 1.3 13.6-2.6 19.3-16.7 38.8-33.3 58.6-49.4 7.6-5.9 14-11.5 10.3-21.2z m0 0" fill="" p-id="5768"></path><path d="M141.6 900.3h51v-51.2h-51c-14.7 0-26.6-11.9-26.6-26.6V141.6c0-14.7 11.9-26.6 26.6-26.6h680.9c14.7 0 26.6 11.9 26.6 26.6v331.1h51.2V141.6c0-42.7-35.1-77.8-77.8-77.8H141.6c-42.2 0-76.9 34.4-77.6 76.4v683.6c0.8 42.1 35.4 76.5 77.6 76.5z" fill="" p-id="5769"></path></svg>