<svg xmlns="http://www.w3.org/2000/svg" width="49" height="65" fill="none" viewBox="0 0 49 65"><g clip-path="url(#b)"><path fill="url(#c)" d="M.697 2.302c0-.736.597-1.333 1.334-1.333h27.828c.354 0 .693.14.943.39l17.505 17.505c.25.25.39.59.39.943v43.828c0 .737-.597 1.334-1.333 1.334H2.03a1.333 1.333 0 0 1-1.334-1.334z"/><path fill="#b2c3dc" fill-rule="evenodd" d="M46.697 20.083v42.886h-44v-60h26.886l.92.92.411 13.151a2.286 2.286 0 0 0 2.285 2.215h12.67zm1.88-.828c.079.171.12.36.12.552v43.828c0 .737-.597 1.334-1.333 1.334H2.03a1.333 1.333 0 0 1-1.334-1.334V2.302c0-.736.597-1.333 1.334-1.333h27.828c.194 0 .384.042.557.122l-.004-.122 18.286 18.286z" clip-rule="evenodd"/></g><defs><clipPath id="b"><path fill="#fff" d="M.697 2.969a2 2 0 0 1 2-2h44a2 2 0 0 1 2 2v60a2 2 0 0 1-2 2h-44a2 2 0 0 1-2-2z"/></clipPath><linearGradient id="c" x1="24.697" x2="24.454" y1=".969" y2="64.61" gradientUnits="userSpaceOnUse"><stop stop-color="#8da5c2"/><stop offset="1" stop-color="#6f82a7"/></linearGradient></defs></svg>