<svg xmlns="http://www.w3.org/2000/svg" width="48" height="48" viewBox="0 0 48 48"><defs><style>.a{fill:#ffb700;}.b{fill:#5abc5f;}.c{fill:#fff;}.d{fill:#ff7800;}</style></defs><g transform="translate(-54 -519)"><circle class="a" cx="11.573" cy="11.573" r="11.573" transform="translate(56 519)"/><circle class="b" cx="24" cy="24" r="24" transform="translate(54 519)"/><path class="c" d="M11034.74,6909.333h-4.379a4.621,4.621,0,0,1-2.979-1.062l-.053-.053a7.268,7.268,0,0,1-1.565-2.209c-.243-.433-.545-.971-.934-1.618a12.227,12.227,0,0,0-2.071-2.446,2.093,2.093,0,0,1-.756-1.5,2.208,2.208,0,0,1,.6-1.64l.053-.053a2.634,2.634,0,0,1,3.614,0l.8.69v-7.227a2.019,2.019,0,1,1,4.038,0v3.294a2.1,2.1,0,0,1,1.061-.294,2.036,2.036,0,0,1,1.544.719,2.265,2.265,0,0,1,.322-.023,2.214,2.214,0,0,1,1.644.713,2.572,2.572,0,0,1,.362-.026,2.018,2.018,0,0,1,1.6.719,2.152,2.152,0,0,1,.406-.039,2.009,2.009,0,0,1,1.987,1.581,1.169,1.169,0,0,1,.053.424v2.554a7.919,7.919,0,0,0-5.348,7.49Zm4.285-14.776h-3.988a2.121,2.121,0,0,0-.8-.158,3.672,3.672,0,0,0-1.542-.638v-1.489a3.575,3.575,0,0,0-3.613-3.614,3.663,3.663,0,0,0-3.616,3.614v2.232h-2.391a1.064,1.064,0,0,1-1.062-1.062v-6.378a1.064,1.064,0,0,1,1.063-1.062h15.946a1.064,1.064,0,0,1,1.063,1.062v6.431A1.064,1.064,0,0,1,11039.025,6894.557Z" transform="translate(-10952.568 -6354.053)"/><g transform="translate(11174.999 6886)"><circle class="d" cx="7.72" cy="7.72" r="7.72" transform="translate(-11088.439 -6338.44)"/><path class="c" d="M131.11,85.333a.444.444,0,0,1,.444.444v1.777a.444.444,0,0,1-.444.444h-.888v.888h2.221v-.444a.444.444,0,0,1,.444-.444h2.665a.444.444,0,0,1,.444.444v1.777a.444.444,0,0,1-.444.444h-2.665a.444.444,0,0,1-.444-.444v-.444h-2.221V92.44h2.221V92a.444.444,0,0,1,.444-.444h2.665A.444.444,0,0,1,136,92v1.777a.444.444,0,0,1-.444.444h-2.665a.444.444,0,0,1-.444-.444v-.444h-2.665a.444.444,0,0,1-.444-.444V88h-.888a.444.444,0,0,1-.444-.444V85.777a.444.444,0,0,1,.444-.444Zm4,7.107H133.33v.888h1.777Zm0-3.553H133.33v.888h1.777Zm-4.442-2.665h-1.777v.888h1.777Z" transform="translate(-11212.599 -6420.604)"/></g></g></svg>