<svg xmlns="http://www.w3.org/2000/svg" width="48" height="48" viewBox="0 0 48 48"><defs><style>.a{fill:#00b354;}.b{fill:#ffb700;}.c{fill:#fff;}</style></defs><g transform="translate(-54 -311)"><circle class="a" cx="11.573" cy="11.573" r="11.573" transform="translate(56 311)"/><circle class="b" cx="24" cy="24" r="24" transform="translate(54 311)"/><g transform="translate(1.999)"><circle class="a" cx="7.72" cy="7.72" r="7.72" transform="translate(84.561 339.56)"/><path class="c" d="M5.888,120.533a.661.661,0,0,0-.658.6l0,.06V122.3l-.117.006c-2.693.16-4.63,1.588-5.3,5.013l-.021.111-.014.039a.4.4,0,0,0-.01.048l0,.055a.419.419,0,0,0,.419.434.434.434,0,0,0,.213-.048l.084-.043.094-.054.193-.119.485-.3.256-.155.23-.136.15-.086.239-.132a9.851,9.851,0,0,1,1.749-.769,3.911,3.911,0,0,1,1.261-.2l.1,0v1.377a.661.661,0,0,0,.146.414l.043.048a.662.662,0,0,0,.888.053l.048-.042,2.9-2.834a.915.915,0,0,0,.073-1.361l-.052-.047-2.919-2.853a.662.662,0,0,0-.463-.189Zm.165,2.584v-1.53l2.66,2.6a.1.1,0,0,1,.007.16L6.054,126.95v-1.66l-.315-.077a3.97,3.97,0,0,0-2.114.163,10.582,10.582,0,0,0-1.9.832l-.134.074-.25.141c-.082.047-.163.1-.249.146l-.3.184.006-.025a4.478,4.478,0,0,1,4.716-3.607H5.64v0h.413Z" transform="translate(87.889 222.795)"/></g><path class="c" d="M233.091,204.608c-9.745-.423-7.376,8.561-18.346,8.561a1.412,1.412,0,0,1-1.412-1.412V193.413A1.412,1.412,0,0,1,214.746,192h16.933a1.412,1.412,0,0,1,1.412,1.412Zm-15.524-7.669a.706.706,0,1,0,0,1.412h8.468a.706.706,0,1,0,0-1.412Zm0,4.234a.706.706,0,1,0,0,1.412h5.645a.706.706,0,1,0,0-1.412Z" transform="translate(-145.211 132.415)"/></g></svg>