<svg xmlns="http://www.w3.org/2000/svg" width="22.155" height="20.5" viewBox="0 0 22.155 20.5"><defs><style>.icon-douyin_svg__d{fill:#00faf0}.icon-douyin_svg__e{fill:#ff0050}</style></defs><path d="M2.839 18.982a1 1 0 0 1-1-1v-7.1a.5.5 0 0 1-.189-.08L.343 9.9a.5.5 0 0 1 0-.824l1.307-.9a.5.5 0 0 1 .189-.08V1a1 1 0 0 1 1-1h17.924v18.982Z" transform="rotate(180 10.382 9.49)" style="fill: rgb(37, 244, 238);"></path><path d="M2.839 18.982a1 1 0 0 1-1-1v-7.1a.5.5 0 0 1-.189-.08L.343 9.9a.5.5 0 0 1 0-.824l1.307-.9a.5.5 0 0 1 .189-.08V1a1 1 0 0 1 1-1h17.924v18.982Z" transform="rotate(180 11.141 10.25)" style="fill: rgb(254, 44, 85);"></path><path d="M18.684.758a1 1 0 0 1 1 1v7.1a.5.5 0 0 1 .189.08l1.307.902a.5.5 0 0 1 0 .824l-1.307.9a.5.5 0 0 1-.189.08v7.096a1 1 0 0 1-1 1H.76V.758Z"></path><path d="M0 0h13.062v13.062H0z" transform="translate(3.266 3.991)" style="fill: none;"></path><path class="icon-douyin_svg__d" d="M9.026 9.549v-.354a3.114 3.114 0 0 0-.374-.025 2.771 2.771 0 0 0-1.591 5.042 2.752 2.752 0 0 1-.744-1.886 2.783 2.783 0 0 1 2.709-2.777Z"></path><path class="icon-douyin_svg__d" d="M9.09 13.582a1.264 1.264 0 0 0 1.261-1.216V6.334h1.1a1.954 1.954 0 0 1-.035-.384H9.913v6.032a1.264 1.264 0 0 1-1.261 1.216 1.233 1.233 0 0 1-.586-.148 1.256 1.256 0 0 0 1.024.532ZM13.518 8.383v-.335a2.078 2.078 0 0 1-1.143-.34 2.141 2.141 0 0 0 1.143.675Z"></path><path class="icon-douyin_svg__e" d="M12.381 7.708a2.088 2.088 0 0 1-.517-1.374h-.4a2.119 2.119 0 0 0 .917 1.374ZM8.652 10.672a1.263 1.263 0 0 0-.586 2.383 1.262 1.262 0 0 1 1.025-2 1.192 1.192 0 0 1 .374.059v-1.54a3.12 3.12 0 0 0-.374-.025h-.065v1.182a1.17 1.17 0 0 0-.374-.059Z"></path><path class="icon-douyin_svg__e" d="M13.519 8.382v1.172a3.577 3.577 0 0 1-2.094-.675v3.058a2.769 2.769 0 0 1-4.36 2.27 2.772 2.772 0 0 0 4.8-1.886V9.263a3.588 3.588 0 0 0 2.094.675V8.431a2.6 2.6 0 0 1-.44-.049Z"></path><path d="M6.754 7.149V4.091a3.588 3.588 0 0 0 2.094.675V3.594a2.123 2.123 0 0 1-1.143-.674 2.072 2.072 0 0 1-.916-1.374h-1.1v6.031a1.264 1.264 0 0 1-1.265 1.217A1.251 1.251 0 0 1 3.4 8.267a1.263 1.263 0 0 1 .586-2.383 1.192 1.192 0 0 1 .374.059V4.761a2.773 2.773 0 0 0-2.7 2.767 2.743 2.743 0 0 0 .74 1.886 2.766 2.766 0 0 0 4.354-2.265Z" transform="translate(4.67 4.788)" style="fill: rgb(255, 255, 255);"></path></svg>