<svg xmlns="http://www.w3.org/2000/svg" width="22.27" height="20.681" viewBox="0 0 22.27 20.681"><defs><linearGradient id="icon-xhs_svg__a" x1="1" y1="0.98" x2="-0.289" y2="-0.286" gradientUnits="objectBoundingBox"><stop offset="0" stop-color="#ff2451"></stop><stop offset="1" stop-color="#ffa5a5"></stop></linearGradient><style>.icon-xhs_svg__b{fill:none}</style></defs><path d="M3.005 20.681a1 1 0 0 1-1-1v-7.8a.5.5 0 0 1-.145-.07l-1.522-1.06a.5.5 0 0 1 0-.821L1.86 8.871a.506.506 0 0 1 .145-.07V1a1 1 0 0 1 1-1h19.39v20.681Z" transform="rotate(180 11.197 10.34)" style="fill: url(&quot;#icon-xhs_svg__a&quot;);"></path><path class="icon-xhs_svg__b" d="M2.54 2.902h15.965v15.965H2.54z"></path><g transform="translate(2.625 2.987)"><rect class="icon-xhs_svg__b" width="15.005" height="15.005" rx="2"></rect><path d="M128.219 378.663a6.3 6.3 0 0 1-.11 1.979 1.285 1.285 0 0 1-.11.44s.165.33.55.934c.715-.6.66-3.353.66-3.353Zm4.4 2.034a8.267 8.267 0 0 1-.111-1.979h-.988s-.111 2.748.659 3.353a5.78 5.78 0 0 1 .55-.934c-.057-.111-.057-.275-.112-.437Zm-2.748 1.044h-.66l.33.77h.879c.33 0 .44-.6.44-.6v-4.451h-.99v4.287Zm4.451-1.264.825-1.649h-.825l.5-1.374h-.934l-.716 1.814a.242.242 0 0 0 .219.33h.5l-.55 1.264a.242.242 0 0 0 .219.33h1.209l.275-.716h-.713Zm-1.154 1.155-.5.88h1.539l.386-.88h-1.43Zm3.957-2.913h.5v-.99h-2.2v.935h.659v2.913h-.88l-.44.934h3.188v-.88h-.824Zm4.508.88h-.22v-.88a.88.88 0 0 0-.879-.934h-.66v-.44h-.934v.44h-.659v.879h.66v.88H138v.88h.934v2.088h.934v-2.033h1.76v1.32h-.928l.33.769h.769a.728.728 0 0 0 .714-.715v-1.319a.825.825 0 0 0-.882-.934Zm-1.1 0h-.66v-.935h.66Zm2.033-1.374a.44.44 0 1 0-.88 0v.439h.44a.473.473 0 0 0 .44-.44Z" transform="translate(-127.781 -372.49)" style="fill: rgb(255, 255, 255);"></path></g></svg>