<svg xmlns="http://www.w3.org/2000/svg" width="20" height="20" viewBox="0 0 20 20"><defs><style>.a{fill:#1b1e31;}.b{fill:#3fece0;}.c{fill:#fff;}.d{fill:#f12e62;}</style></defs><rect class="a" width="20" height="20" rx="4"/><g transform="translate(3.848 2.98)"><path class="b" d="M1063.114,549.871c.011-1.118,0-2.247.011-3.366h2.29a2.627,2.627,0,0,0,.053.586l-1.566.128.128,8.968a4.334,4.334,0,0,1-.457,1.576,2.733,2.733,0,0,1-1.8,1.033,1.657,1.657,0,0,1-.99-.245c-.256-.139-.394-.906-.469-1.108a1.877,1.877,0,0,0,1.917-.074,1.959,1.959,0,0,0,.906-1.63c-.022-1.96-.022-3.919-.022-5.868Zm3.771-.65a3.136,3.136,0,0,0,1.054.437,2.8,2.8,0,0,0,.66.075v.617C1067.939,550.2,1066.512,549.787,1066.885,549.222Z" transform="translate(-1056.957 -546.506)"/><path class="b" d="M1057.988,553.554a4.174,4.174,0,0,1,2.78-.586v.7a4.113,4.113,0,0,0-2.365.938,3.78,3.78,0,0,0-1.054,5.017c.16.288.468.725.393,1.044a4.129,4.129,0,0,1-1.193-1.31,4.258,4.258,0,0,1,.042-4.388A4.121,4.121,0,0,1,1057.988,553.554Z" transform="translate(-1055.963 -547.973)"/><path class="c" d="M1062.98,547.265h1.714a8.076,8.076,0,0,1,.394.917,3.963,3.963,0,0,0,.927,1.14.254.254,0,0,1,.075.074,3.234,3.234,0,0,0,1.714,1.022c.383.277.117,1.4.117,1.992a5.428,5.428,0,0,1-3.163-1.086c0,1.427,0,2.747.011,4.186,0,.191.011.373,0,.575a6.24,6.24,0,0,1-.724,2.3,4.388,4.388,0,0,1-1.193,1.353,3.818,3.818,0,0,1-2.173.746,4.89,4.89,0,0,1-1.182-.1,5.093,5.093,0,0,1-1.523-.98l-.032-.032a3.321,3.321,0,0,1-.575-.8,4.345,4.345,0,0,1,1.118-5.5,4.31,4.31,0,0,1,2.471-.863c.245.117.075,1.917.075,1.917a1.873,1.873,0,0,0-.97.011,1.818,1.818,0,0,0-.83.522,1.618,1.618,0,0,0-.416.511.973.973,0,0,0-.138.767,1.854,1.854,0,0,0,.351,1.033c.16.2.266.512.48.65a1.54,1.54,0,0,0,.639.6,1.984,1.984,0,0,0,1.1.224,1.851,1.851,0,0,0,1.448-.927,2.438,2.438,0,0,0,.277-1.15c0-3.142.011-9.107.011-9.107Z" transform="translate(-1056.162 -546.679)"/><path class="d" d="M1065.015,547.265c.2.011.393,0,.607,0a3.292,3.292,0,0,0,.6,1.875,1.444,1.444,0,0,0,.149.191,2.829,2.829,0,0,1-1.012-1.14,3.673,3.673,0,0,1-.34-.927Zm3.131,3.153a2.8,2.8,0,0,0,.661.075V552.8a5.4,5.4,0,0,1-3.184-1.033v4.59a4.211,4.211,0,0,1-.1,1.033,4.265,4.265,0,0,1-1.683,2.567,4.021,4.021,0,0,1-1.512.671,4.153,4.153,0,0,1-1.981-.033,4.209,4.209,0,0,1-2.023-1.214,4.019,4.019,0,0,0,1.533.66,4.892,4.892,0,0,0,1.183.1,3.819,3.819,0,0,0,2.173-.746,4.393,4.393,0,0,0,1.193-1.353,4.7,4.7,0,0,0,.617-1.98,5.2,5.2,0,0,0,0-.576c-.021-1.417-.021-2.843-.021-4.271a5.332,5.332,0,0,0,3.153,1c-.011-.6,0-1.2-.011-1.8Z" transform="translate(-1056.503 -546.679)"/><path class="d" d="M1061.456,553.671a4.569,4.569,0,0,1,.67.042v2.375a1.876,1.876,0,0,0-1-.042,1.963,1.963,0,0,0-1.139,3.035,2.147,2.147,0,0,1-1-1.5,1.9,1.9,0,0,1,.2-1.108,1.644,1.644,0,0,1,.416-.522,2.592,2.592,0,0,1,.969-.48,1.63,1.63,0,0,1,.873.022C1061.456,555.4,1061.456,553.9,1061.456,553.671Z" transform="translate(-1056.65 -548.143)"/></g></svg>