<?xml version="1.0" standalone="no"?><!DOCTYPE svg PUBLIC "-//W3C//DTD SVG 1.1//EN" "http://www.w3.org/Graphics/SVG/1.1/DTD/svg11.dtd"><svg t="1778314087749" class="icon" viewBox="0 0 1024 1024" version="1.1" xmlns="http://www.w3.org/2000/svg" p-id="13633" width="200" height="200" xmlns:xlink="http://www.w3.org/1999/xlink"><path d="M43.4016 376.64c2.816-7.296 40.064 219.392 212.48 332.736l-19.072 104.96a151.04 151.04 0 0 0 123.456-57.28c100.928 28.032 234.24 20.416 408.576-56.512 0 0-51.456 170.752-149.12 232.32-181.12 113.728-466.304 60.48-575.424-128.256-31.04-53.632-81.344-203.52-0.896-427.968z m743.552-120.192a360.064 360.064 0 0 1 224.128 433.856c-17.536 59.392-52.992 178.112-270.912 273.792-0.32 0.128-0.384 0-0.256-0.32l0.768-1.6 1.792-2.944c30.528-49.024 310.4-452.224-194.816-696.96a436.736 436.736 0 0 1 239.36-5.76z m58.88-74.752c8.256 9.92-496.064-126.4-617.856 384.64v-0.32S128.0096 453.184 132.0416 337.536A381.696 381.696 0 0 1 505.9296 0h11.584c65.152 0.64 183.552 10.688 328.32 181.696z" fill="#07C15E" p-id="13634" data-spm-anchor-id="a313x.search_index.0.i10.70b63a81ndbTzv" class="selected"></path></svg>