<svg xmlns="http://www.w3.org/2000/svg" width="20" height="20" viewBox="0 0 20 20"><defs><style>.a{fill:#ff5000;}.b,.c{fill:#fff;}.b{opacity:0;}</style></defs><g transform="translate(-886 -1347)"><rect class="a" width="20" height="20" rx="4" transform="translate(886 1347)"/><g transform="translate(887.902 1348.904)"><rect class="b" width="16" height="16" transform="translate(0.098 0.096)"/><path class="c" d="M6.828,15.486a2.7,2.7,0,0,1-2.566-1.859L1.9,14.813A1.309,1.309,0,0,1,0,13.641V9.8A1.311,1.311,0,0,1,1.9,8.626L4.256,9.818A2.7,2.7,0,0,1,6.828,7.941H10.8a2.7,2.7,0,0,1,2.7,2.7v2.144a2.7,2.7,0,0,1-2.7,2.7Zm.018-1.39H10.76a1.348,1.348,0,0,0,1.35-1.328V10.681a1.35,1.35,0,0,0-1.328-1.35H6.869a1.35,1.35,0,0,0-1.35,1.328v2.087A1.349,1.349,0,0,0,6.847,14.1ZM1.389,10.52v2.416a.373.373,0,0,0,.04.163.357.357,0,0,0,.475.158l.006,0,2.22-1.131v-.8L1.908,10.206a.382.382,0,0,0-.161-.037A.358.358,0,0,0,1.389,10.52Zm0-6.867A3.653,3.653,0,0,1,8.23,1.869a3.136,3.136,0,1,1-.4,4.148A3.653,3.653,0,0,1,1.389,3.653Zm1.469,0A2.184,2.184,0,1,0,5.042,1.47,2.183,2.183,0,0,0,2.858,3.653Zm5.836.515A1.668,1.668,0,1,0,10.363,2.5,1.668,1.668,0,0,0,8.695,4.169Z" transform="translate(1.348 0.177)"/></g></g></svg>