<?xml version="1.0" encoding="UTF-8"?>
<svg version="1.1" xmlns="http://www.w3.org/2000/svg" width="512" height="512">
<path d="M0 0 C3.48209317 0.00478262 6.96413382 -0.00782269 10.44620943 -0.01801741 C17.24734619 -0.03511307 24.04839018 -0.03606464 30.84954283 -0.03080451 C36.38484915 -0.02674369 41.92012832 -0.02822891 47.45543337 -0.03355277 C48.24679511 -0.03430119 49.03815685 -0.03504961 49.85349925 -0.03582071 C51.46177608 -0.03735238 53.07005291 -0.03889073 54.67832974 -0.04043568 C69.72213716 -0.05412771 84.76589241 -0.04874665 99.80969861 -0.03725047 C113.53012424 -0.02732494 127.25041487 -0.04025286 140.97081968 -0.06418466 C155.10563188 -0.08865088 169.24038141 -0.09816492 183.37521434 -0.09153193 C191.29210524 -0.08805592 199.2088925 -0.09016367 207.12576723 -0.10778296 C213.86618255 -0.12259964 220.60642124 -0.12301839 227.34683344 -0.10571205 C230.77628414 -0.09727601 234.20542062 -0.09486733 237.63485384 -0.1103636 C256.2259315 -0.17678101 274.3338109 0.71495553 291.83774996 7.59433305 C292.60812593 7.88912553 293.37850191 8.18391801 294.17222261 8.4876436 C325.37503496 20.86426764 350.65048267 45.68840576 364.20884371 76.31210649 C365.74160768 79.96519395 367.11248745 83.66083623 368.40024996 87.40683305 C368.63075045 88.06925004 368.86125093 88.73166704 369.09873629 89.41415727 C374.33453998 105.60034731 374.53369363 121.45944698 374.49458301 138.31908309 C374.48980039 141.80117627 374.5024057 145.28321691 374.51260042 148.76529253 C374.52969608 155.56642928 374.53064765 162.36747328 374.52538752 169.16862592 C374.5213267 174.70393225 374.52281192 180.23921141 374.52813578 185.77451646 C374.5288842 186.5658782 374.52963262 187.35723994 374.53040372 188.17258234 C374.53193539 189.78085918 374.53347374 191.38913601 374.53501869 192.99741283 C374.54871072 208.04122025 374.54332966 223.08497551 374.53183348 238.12878171 C374.52190795 251.84920733 374.53483587 265.56949796 374.55876767 279.28990278 C374.58323389 293.42471498 374.59274793 307.55946451 374.58611494 321.69429743 C374.58263893 329.61118834 374.58474668 337.52797559 374.60236597 345.44485033 C374.61718265 352.18526564 374.6176014 358.92550433 374.60029506 365.66591653 C374.59185902 369.09536723 374.58945034 372.52450372 374.60494661 375.95393693 C374.67136403 394.5450146 373.77962748 412.652894 366.90024996 430.15683305 C366.60545748 430.92720903 366.310665 431.69758501 366.00693941 432.49130571 C356.13486544 457.37987552 337.96730112 479.44357757 315.08774996 493.40683305 C314.01524996 494.09003618 312.94274996 494.7732393 311.83774996 495.47714555 C305.45004956 499.3659539 298.94823783 502.48484403 291.96274996 505.15683305 C291.27874117 505.42640825 290.59473238 505.69598344 289.88999605 505.97372758 C271.57496724 512.61625088 252.95550458 512.98750368 233.69712496 512.92441118 C230.88921006 512.92764626 228.08132106 512.93682879 225.2734189 512.94565141 C218.48616735 512.96329401 211.69909425 512.95966107 204.91183615 512.94800085 C199.38806192 512.93890996 193.86433716 512.93776673 188.34055758 512.94209611 C187.54973779 512.94270905 186.75891801 512.94332198 185.944134 512.94395348 C184.33682329 512.94523258 182.7295126 512.94652944 181.12220192 512.94784385 C166.10506253 512.95920786 151.08802133 512.94620193 136.07089806 512.92464238 C123.22881 512.90677521 110.38686666 512.9098805 97.54478121 512.92831743 C82.57569806 512.94979842 67.60670065 512.95810962 52.63760424 512.94586837 C51.03671695 512.94459438 49.43582965 512.9433369 47.83494234 512.94209611 C47.04759258 512.94147901 46.26024282 512.94086191 45.44903398 512.94022611 C39.94182532 512.93679481 34.43467175 512.94255319 28.92747164 512.95201433 C22.20178323 512.96331652 15.47628117 512.96002387 8.75061369 512.93889135 C5.32917146 512.92848977 1.90829014 512.92627884 -1.51318693 512.93748796 C-22.88729031 513.00100847 -42.22548579 511.05828192 -61.91225004 502.40683305 C-62.56644926 502.12356157 -63.22064848 501.84029008 -63.89467192 501.54843462 C-93.98974488 488.26256094 -117.69643593 462.6852702 -129.78334379 432.21054399 C-130.63388989 429.95385314 -131.44074075 427.68745259 -132.22475004 425.40683305 C-132.57050077 424.41320756 -132.57050077 424.41320756 -132.92323637 423.39950883 C-138.15904006 407.2133188 -138.35819372 391.35421913 -138.31908309 374.49458301 C-138.31430048 371.01248984 -138.32690578 367.53044919 -138.33710051 364.04837358 C-138.35419617 357.24723682 -138.35514773 350.44619283 -138.3498876 343.64504018 C-138.34582678 338.10973386 -138.347312 332.5744547 -138.35263586 327.03914964 C-138.35338428 326.2477879 -138.3541327 325.45642616 -138.35490381 324.64108376 C-138.35643548 323.03280693 -138.35797382 321.4245301 -138.35951877 319.81625327 C-138.3732108 304.77244585 -138.36782974 289.7286906 -138.35633356 274.6848844 C-138.34640804 260.96445877 -138.35933595 247.24416814 -138.38326775 233.52376333 C-138.40773398 219.38895113 -138.41724801 205.2542016 -138.41061503 191.11936867 C-138.40713902 183.20247777 -138.40924677 175.28569051 -138.42686605 167.36881578 C-138.44168273 160.62840046 -138.44210148 153.88816178 -138.42479514 147.14774957 C-138.41635911 143.71829887 -138.41395042 140.28916239 -138.4294467 136.85972917 C-138.49586411 118.26865151 -137.60412757 100.16077211 -130.72475004 82.65683305 C-130.42995756 81.88645708 -130.13516508 81.1160811 -129.8314395 80.3223604 C-117.45481545 49.11954805 -92.63067734 23.84410034 -62.0069766 10.2857393 C-58.35388915 8.75297533 -54.65824686 7.38209556 -50.91225004 6.09433305 C-49.91862455 5.74858232 -49.91862455 5.74858232 -48.90492582 5.39584672 C-32.71873579 0.16004303 -16.85963612 -0.03911062 0 0 Z " fill="#E60019" transform="translate(137.91225004196167,-0.40683305263519287)"/>
<path d="M0 0 C3.33229709 2.90431278 6.53770082 5.92643256 9.69189453 9.02246094 C11.13447143 10.43503376 12.59972599 11.82432923 14.06542969 13.21289062 C36.14430143 34.51977384 51.16720059 63.04022149 59.17089844 92.47070312 C59.48671875 93.60636719 59.80253906 94.74203125 60.12792969 95.91210938 C69.98759617 134.71936809 63.86490278 176.62813535 47.17089844 212.47070312 C46.7184375 213.47206299 46.7184375 213.47206299 46.25683594 214.49365234 C41.68112897 224.60992039 35.72532321 233.55853655 29.17089844 242.47070312 C28.48640625 243.40269531 27.80191406 244.3346875 27.09667969 245.29492188 C-0.93937748 281.26259443 -42.87285825 305.52231077 -88.12329102 311.69262695 C-113.67524385 314.56480878 -139.15853531 312.94875012 -163.82910156 305.47070312 C-162.57733079 302.21116637 -161.19084713 299.15023849 -159.50878906 296.09179688 C-148.70471077 276.17668649 -141.78665734 256.72813336 -136.59082031 234.74414062 C-135.20991271 228.9139774 -133.6537405 223.17724661 -131.82910156 217.47070312 C-131.23097656 218.13070313 -130.63285156 218.79070312 -130.01660156 219.47070312 C-118.13688512 231.15131818 -105.86834539 235.91995392 -89.45410156 236.09570312 C-79.08861007 235.98530961 -70.33348868 234.67399608 -60.82910156 230.47070312 C-60.15556641 230.18130859 -59.48203125 229.89191406 -58.78808594 229.59375 C-49.35919636 225.46258071 -41.438744 220.49005289 -33.82910156 213.47070312 C-33.19875 212.92027344 -32.56839844 212.36984375 -31.91894531 211.80273438 C-12.5110501 193.89795634 -2.27685383 163.85518056 -0.61328125 138.13378906 C0.59884522 107.02835647 -7.38218921 81.94844691 -27.75488281 58.22851562 C-44.15641024 40.73823584 -70.82490403 28.53046132 -94.70019531 27.265625 C-99.09750523 27.14118287 -103.49289134 27.13640049 -107.89160156 27.15820312 C-108.66978241 27.16035828 -109.44796326 27.16251343 -110.24972534 27.16473389 C-121.65441815 27.21550032 -132.75883736 27.45749512 -143.82910156 30.47070312 C-144.55226562 30.6640625 -145.27542969 30.85742188 -146.02050781 31.05664062 C-161.83895735 35.45216177 -176.52015116 42.50571091 -188.82910156 53.47070312 C-189.64507812 54.13328125 -190.46105469 54.79585938 -191.30175781 55.47851562 C-209.11506447 70.40094562 -220.36893482 94.36307316 -223.54394531 117.17382812 C-225.73278466 142.48040913 -220.57371998 166.8283571 -204.73535156 187.15820312 C-200.00400019 192.75585826 -194.79221232 197.81293546 -187.82910156 200.47070312 C-185.72066315 200.06286833 -185.72066315 200.06286833 -183.82910156 199.47070312 C-182.98336462 196.43234818 -182.1547823 193.389564 -181.32910156 190.34570312 C-181.090625 189.48976563 -180.85214844 188.63382813 -180.60644531 187.75195312 C-178.25370512 179.47033051 -178.25370512 179.47033051 -180.40332031 171.38476562 C-181.10070312 170.299375 -181.79808594 169.21398437 -182.51660156 168.09570312 C-192.50170389 151.46199469 -194.46460192 133.17705906 -190.57910156 114.15429688 C-184.66737224 93.00139038 -171.35899959 76.58282402 -152.58691406 65.56835938 C-132.6941427 54.90024049 -109.52540916 53.25238174 -87.82910156 59.47070312 C-70.24211429 65.13564275 -55.65709405 76.24026378 -46.87207031 92.72338867 C-36.92732659 112.3298741 -36.0452146 135.40248835 -41.82910156 156.47070312 C-42.08651123 157.44595947 -42.08651123 157.44595947 -42.34912109 158.44091797 C-46.94285021 175.6047977 -54.94353215 192.06620633 -70.27050781 202.03710938 C-80.77052245 207.92032369 -91.75094884 210.39414439 -103.72363281 207.85742188 C-111.23847535 205.23703899 -115.56818568 200.38321004 -119.48144531 193.61132812 C-124.84764077 181.10575958 -118.66618698 166.61878721 -114.79589844 154.50976562 C-113.56935749 150.65421468 -112.4002029 146.78285313 -111.23974609 142.90698242 C-110.72979099 141.20390988 -110.21539951 139.50215708 -109.69580078 137.80200195 C-106.52035912 127.35437962 -104.12940864 115.00066064 -109.01660156 104.72070312 C-111.76036733 100.12720762 -114.61416385 97.52543537 -119.45410156 95.22070312 C-127.71398499 93.38517347 -134.26060181 93.85896589 -141.68066406 98.06054688 C-149.65152411 103.29232956 -155.35573176 112.31554327 -157.82910156 121.47070312 C-158.36352532 124.23998985 -158.67666706 126.67756495 -158.82910156 129.47070312 C-158.89355469 130.55222656 -158.95800781 131.63375 -159.02441406 132.74804688 C-159.29679095 141.40055262 -158.13568621 148.39272074 -155.60644531 156.61914062 C-153.9617999 164.76798675 -156.43463324 172.45516831 -158.51660156 180.34570312 C-161.05781602 190.22215268 -163.33874699 200.13276593 -165.4987793 210.09887695 C-167.06542152 217.24818355 -168.79812648 224.33568161 -170.64160156 231.41845703 C-176.58537398 254.33603369 -178.61999711 276.84776578 -175.82910156 300.47070312 C-198.68354198 291.01893322 -217.99315264 278.65091863 -235.82910156 261.47070312 C-236.58191406 260.78105469 -237.33472656 260.09140625 -238.11035156 259.38085938 C-263.8732838 235.06475847 -279.78663335 199.92477686 -285.82910156 165.47070312 C-286.00860352 164.49649414 -286.18810547 163.52228516 -286.37304688 162.51855469 C-287.79823171 154.21299263 -288.14282885 146.13810576 -288.07910156 137.72070312 C-288.07533508 137.06229431 -288.0715686 136.4038855 -288.06768799 135.7255249 C-287.76449509 90.38789691 -271.1099362 48.40044998 -239.82910156 15.47070312 C-239.33458496 14.9436377 -238.84006836 14.41657227 -238.33056641 13.87353516 C-176.88292437 -51.25316135 -74.28685005 -56.71943463 0 0 Z " fill="#FEFDFD" transform="translate(367.8291015625,119.529296875)"/>
<path d="M0 0 C2.76292962 -0.0057224 5.52583964 -0.01584849 8.28875732 -0.02566528 C14.98059547 -0.04658814 21.67234674 -0.05126784 28.36421376 -0.0494774 C33.80896728 -0.04816348 39.25369398 -0.05200581 44.69844246 -0.05940247 C46.27402832 -0.06150192 47.84961418 -0.06359952 49.42520005 -0.06569529 C50.20969228 -0.06673881 50.99418451 -0.06778234 51.80244923 -0.06885749 C66.59579336 -0.08770569 81.38908777 -0.08672592 96.18243892 -0.07988816 C109.68182217 -0.07431262 123.18101566 -0.0951483 136.68035459 -0.12824863 C150.58350206 -0.16207135 164.48655882 -0.17714359 178.38974816 -0.1725316 C186.1785826 -0.1702961 193.96724155 -0.1753951 201.75604057 -0.20042419 C208.38531118 -0.2215483 215.01430997 -0.22491988 221.64359217 -0.2061246 C225.0181753 -0.19703546 228.39184348 -0.19837829 231.76645088 -0.21648026 C255.80735142 -0.33647452 276.16774299 2.73904735 294.24047852 20.16210938 C294.97782227 20.9071875 295.71516602 21.65226562 296.47485352 22.41992188 C297.51899414 23.41378906 297.51899414 23.41378906 298.58422852 24.42773438 C311.221599 37.31001514 316.27455541 55.44413948 316.72485352 73.04492188 C316.53241473 93.05855587 308.46358352 111.15118905 294.30517578 125.1328125 C283.66266619 135.14232871 267.41925479 144.29219195 252.47485352 144.41992188 C250.02563477 142.45898438 250.02563477 142.45898438 247.47485352 139.41992188 C246.30756195 138.19825073 245.12961748 136.9867067 243.94360352 135.78320312 C243.30503418 135.12860107 242.66646484 134.47399902 242.00854492 133.79956055 C214.47618463 105.81438713 179.14894091 88.64029143 140.47485352 82.41992188 C139.27989258 82.2265625 138.08493164 82.03320312 136.85375977 81.83398438 C118.58886659 79.69633883 98.39616488 80.38954344 80.47485352 84.41992188 C79.60779785 84.61328125 78.74074219 84.80664062 77.84741211 85.00585938 C46.48991917 92.25899356 18.79307192 107.2993159 -4.52514648 129.41992188 C-5.01982422 129.88205078 -5.51450195 130.34417969 -6.02416992 130.8203125 C-24.39977209 148.07641645 -38.64736592 169.28791594 -46.85229492 193.20019531 C-48.98668554 199.15069141 -48.98668554 199.15069141 -51.77514648 200.54492188 C-53.13639648 200.97804687 -53.13639648 200.97804687 -54.52514648 201.41992188 C-57.21165936 203.51105581 -59.63506745 205.87445445 -62.08764648 208.23242188 C-63.1488269 209.24393311 -63.1488269 209.24393311 -64.23144531 210.27587891 C-81.37098484 226.75508819 -95.37059404 244.98169356 -107.52514648 265.41992188 C-107.89978027 266.04511719 -108.27441406 266.6703125 -108.66040039 267.31445312 C-120.31340307 287.04417329 -128.46257096 310.12117883 -133.52514648 332.41992188 C-133.67983398 333.05631592 -133.83452148 333.69270996 -133.99389648 334.34838867 C-135.48683412 340.67699119 -136.35268336 347.03354917 -137.15014648 353.48242188 C-137.35124023 355.06700195 -137.35124023 355.06700195 -137.55639648 356.68359375 C-137.88306249 359.26192186 -138.20589847 361.84066661 -138.52514648 364.41992188 C-138.85514648 364.41992188 -139.18514648 364.41992188 -139.52514648 364.41992188 C-139.61662089 332.6570678 -139.68730029 300.89425159 -139.7294078 269.13129635 C-139.73440995 265.37171037 -139.7395873 261.61212465 -139.74487305 257.85253906 C-139.74592229 257.10415035 -139.74697153 256.35576163 -139.74805257 255.58469447 C-139.76540396 243.50576046 -139.79691221 231.42690347 -139.83375767 219.34801498 C-139.87131439 206.93134696 -139.89341327 194.51471896 -139.90150046 182.09799647 C-139.9069579 174.4513027 -139.92412193 166.80482675 -139.95681235 159.15820011 C-139.98068336 153.2705268 -139.98292956 147.38296207 -139.97757721 141.49523926 C-139.97866815 139.09769103 -139.98649606 136.70013374 -140.00196838 134.30263519 C-140.11040681 116.61634437 -138.87589359 99.30588616 -132.33764648 82.66992188 C-132.042854 81.8995459 -131.74806152 81.12916992 -131.44433594 80.33544922 C-119.06771189 49.13263688 -94.24357378 23.85718916 -63.61987305 10.29882812 C-59.96678559 8.76606416 -56.2711433 7.39518438 -52.52514648 6.10742188 C-51.531521 5.76167114 -51.531521 5.76167114 -50.51782227 5.40893555 C-33.81442175 0.00582797 -17.38609943 -0.02194855 0 0 Z " fill="#FE1E37" transform="translate(139.525146484375,-0.419921875)"/>
<path d="M0 0 C33.29972073 0.73113159 62.83383589 18.68570884 85.34765625 41.9765625 C97.29287523 54.79749412 105.64413789 70.51119373 111.3125 87 C111.54300049 87.66241699 111.77350098 88.32483398 112.01098633 89.00732422 C117.24679002 105.19351425 117.44594367 121.05261392 117.40683305 137.91225004 C117.40205043 141.39434321 117.41465574 144.87638386 117.42485046 148.35845947 C117.44194613 155.15959623 117.44289769 161.96064023 117.43763756 168.76179287 C117.43357674 174.2970992 117.43506196 179.83237836 117.44038582 185.36768341 C117.44113424 186.15904515 117.44188266 186.95040689 117.44265376 187.76574929 C117.44418543 189.37402613 117.44572378 190.98230296 117.44726873 192.59057978 C117.46096076 207.6343872 117.4555797 222.67814245 117.44408352 237.72194865 C117.43415799 251.44237428 117.44708591 265.16266491 117.47101771 278.88306972 C117.49548393 293.01788193 117.50499797 307.15263146 117.49836498 321.28746438 C117.49488898 329.20435529 117.49699672 337.12114254 117.51461601 345.03801727 C117.52943269 351.77843259 117.52985144 358.51867128 117.5125451 365.25908348 C117.50410906 368.68853418 117.50170038 372.11767066 117.51719666 375.54710388 C117.58361407 394.13818155 116.69187752 412.24606094 109.8125 429.75 C109.51770752 430.52037598 109.22291504 431.29075195 108.91918945 432.08447266 C99.04711548 456.97304247 80.87955116 479.03674451 58 493 C56.9275 493.68320312 55.855 494.36640625 54.75 495.0703125 C27.8729416 511.43296611 -6.0210146 516.96550193 -36.73046875 509.8359375 C-37.80941406 509.56007813 -38.88835937 509.28421875 -40 509 C-40.98613281 508.80664062 -41.97226562 508.61328125 -42.98828125 508.4140625 C-62.40684549 504.36743342 -79.78429416 493.2746835 -95 481 C-95.70253906 480.44183594 -96.40507812 479.88367188 -97.12890625 479.30859375 C-111.05070069 467.87839563 -121.54440883 451.2376372 -129 435 C-129 434.01 -129 433.02 -129 432 C-128.33806641 431.91548584 -127.67613281 431.83097168 -126.99414062 431.74389648 C-85.41171161 426.28137333 -48.6711643 412.04712383 -18 383 C-17.51063965 382.54850586 -17.0212793 382.09701172 -16.51708984 381.63183594 C-6.91042258 372.73422509 0.74140999 362.87694242 8 352 C8.6499292 351.02909424 8.6499292 351.02909424 9.31298828 350.03857422 C15.54324857 340.58241807 19.99247516 330.59103867 24.15722656 320.08251953 C24.91861392 318.20110754 25.74102578 316.34467375 26.5703125 314.4921875 C42.50727755 275.5641909 39.03959612 226.84974869 23.13085938 188.5703125 C16.49903431 173.49694155 8.45716325 159.65044954 -1.77734375 146.76171875 C-3 145 -3 145 -3 143 C-2.12859375 142.84144531 -1.2571875 142.68289062 -0.359375 142.51953125 C19.10381851 138.70693598 35.5551529 130.16890594 47.328125 113.75390625 C59.17596427 95.12647006 62.68381471 74.9418607 58.171875 53.3203125 C55.51413945 42.47851675 49.44802684 32.22593187 42 24 C41.41992188 23.32839844 40.83984375 22.65679688 40.2421875 21.96484375 C29.48456641 10.28449784 15.03164918 4.77220093 0 1 C0 0.67 0 0.34 0 0 Z " fill="#C80000" transform="translate(395,0)"/>
<path d="M0 0 C33.29972073 0.73113159 62.83383589 18.68570884 85.34765625 41.9765625 C99.52704108 57.19544827 108.40216872 76.15108 114 96 C114.51240234 97.80210938 114.51240234 97.80210938 115.03515625 99.640625 C119.21387536 117.5993992 119.05689695 139.27744912 114 157 C113.7834375 157.92425781 113.566875 158.84851563 113.34375 159.80078125 C107.46247409 183.9910292 93.92401465 204.95032752 76 222 C75.35289062 222.64195312 74.70578125 223.28390625 74.0390625 223.9453125 C65.72882127 231.86903088 49.04864105 246 37 246 C36.89042969 245.25878906 36.78085937 244.51757812 36.66796875 243.75390625 C36.12790849 240.16667673 35.56413839 236.58352062 35 233 C34.80535156 231.69804687 34.61070312 230.39609375 34.41015625 229.0546875 C31.72859134 211.91160559 26.61263539 195.58832316 19 180 C18.66097656 179.30277832 18.32195312 178.60555664 17.97265625 177.88720703 C12.44944162 166.67639638 5.96418244 156.53987256 -1.7890625 146.73828125 C-3 145 -3 145 -3 143 C-2.12859375 142.84144531 -1.2571875 142.68289062 -0.359375 142.51953125 C19.10381851 138.70693598 35.5551529 130.16890594 47.328125 113.75390625 C59.17596427 95.12647006 62.68381471 74.9418607 58.171875 53.3203125 C55.51413945 42.47851675 49.44802684 32.22593187 42 24 C41.41992188 23.32839844 40.83984375 22.65679688 40.2421875 21.96484375 C29.48456641 10.28449784 15.03164918 4.77220093 0 1 C0 0.67 0 0.34 0 0 Z " fill="#E60019" transform="translate(395,0)"/>
<path d="M0 0 C2.40233618 22.79550107 -9.5313254 49.42016737 -23.5 66.875 C-24.98200624 68.59896644 -26.48095395 70.30857993 -28 72 C-28.62390625 72.70640625 -29.2478125 73.4128125 -29.890625 74.140625 C-37.59566092 82.36364653 -46.88078763 88.34908543 -57.125 92.875 C-57.74503906 93.14900635 -58.36507812 93.4230127 -59.00390625 93.70532227 C-68.93307923 97.8635505 -78.11861447 99.47333112 -88.875 99.3125 C-89.97585938 99.31572266 -91.07671875 99.31894531 -92.2109375 99.32226562 C-101.72023059 99.2587934 -101.72023059 99.2587934 -106 97 C-107.81003822 91.56988534 -104.81578672 86.23373818 -103 81 C-102.72929687 80.00742187 -102.45859375 79.01484375 -102.1796875 77.9921875 C-101.13055424 74.96821517 -100.33436121 73.21053459 -98 71 C-94.02026875 69.98370705 -90.22800002 69.66871099 -86.14453125 69.39453125 C-75.97041356 68.64132474 -67.03718857 63.15274175 -60 56 C-52.75057329 47.1291456 -46.19169718 36.8190246 -44.0859375 25.42578125 C-41.84958277 13.77775431 -41.84958277 13.77775431 -38.54150391 10.59814453 C-34.09852378 7.67296053 -29.09814776 6.33549865 -24 5 C-22.69603271 4.63213379 -22.69603271 4.63213379 -21.36572266 4.25683594 C-6.21671456 0 -6.21671456 0 0 0 Z " fill="#C80101" transform="translate(367,257)"/>
</svg>
