<?xml version="1.0" standalone="no"?><!DOCTYPE svg PUBLIC "-//W3C//DTD SVG 1.1//EN" "http://www.w3.org/Graphics/SVG/1.1/DTD/svg11.dtd"><svg t="1779782444990" class="icon" viewBox="0 0 1024 1024" version="1.1" xmlns="http://www.w3.org/2000/svg" p-id="3627" xmlns:xlink="http://www.w3.org/1999/xlink" width="200" height="200"><path d="M435.84 589.056c0-26.24 12.608-67.968 110.528-67.968 30.016 0 48.512 2.176 73.344 7.744-7.936 102.784-58.24 116.352-107.136 116.352-26.752 0-76.8-13.952-76.8-56.128z" fill="#000000" p-id="3628"></path><path d="M165.76 1024h692.48A165.76 165.76 0 0 0 1024 858.24V165.76A165.76 165.76 0 0 0 858.24 0H165.76A165.76 165.76 0 0 0 0 165.76v692.48A165.76 165.76 0 0 0 165.76 1024zM375.424 378.24c36.288-51.84 84.16-72.064 150.4-72.064 46.72 0 86.464 15.744 114.88 45.504 28.352 29.824 44.544 72.448 48.256 126.912 15.68 6.592 30.208 14.336 43.392 23.232 53.248 35.776 82.56 89.28 82.56 150.592 0 130.368-106.88 243.584-300.288 243.584-166.08 0-338.624-96.64-338.624-384.256C176 225.664 343.104 128 514.112 128c78.976 0 264.256 11.648 333.888 241.728l-65.28 16.896c-53.888-163.84-166.848-189.952-270.336-189.952-171.2 0-267.968 104.192-267.968 325.952 0 198.848 108.16 304.448 270.208 304.448 133.312 0 232.704-69.248 232.704-170.688 0-69.056-57.984-102.08-60.992-102.08-11.328 59.2-41.664 158.848-174.912 158.848-77.632 0-144.64-53.632-144.64-123.904 0-100.352 95.232-136.704 170.432-136.704 28.16 0 62.08 1.92 79.808 5.504 0-30.592-25.856-82.944-91.264-82.944-58.304 0-74.24 18.432-92.8 39.936l-1.536 1.728c-12.928-8.64-56-38.464-56-38.464z" fill="#000000" p-id="3629"></path></svg>