<svg xmlns="http://www.w3.org/2000/svg" width="20" height="20" viewBox="0 0 20 20"><defs><style>.a{fill:#fa9a32;}.b{fill:#fff;}</style></defs><g transform="translate(-0.286)"><rect class="a" width="20" height="20" rx="4" transform="translate(0.286)"/><path class="b" d="M1065.375,228.99a1.658,1.658,0,0,1,.586.113,1.805,1.805,0,0,1,1.072,1.142,3.618,3.618,0,0,1,.228,1.557,24.782,24.782,0,0,1-.543,3.9,20.2,20.2,0,0,1-.857,3.385,4.361,4.361,0,0,1-.656,1.214,1.6,1.6,0,0,1-1.245.642,1.5,1.5,0,0,1-.641-.142c-.17-.087-.729-.33-1.829-2.129a17.589,17.589,0,0,1-1.042-1.929,17.355,17.355,0,0,1-1.042,1.929c-1.115,1.8-1.657,2.057-1.829,2.128a1.5,1.5,0,0,1-.643.143,1.6,1.6,0,0,1-1.243-.642,4.133,4.133,0,0,1-.656-1.216,20.13,20.13,0,0,1-.857-3.383,26.518,26.518,0,0,1-.543-3.9,4.412,4.412,0,0,1,.2-1.555,1.8,1.8,0,0,1,1.071-1.144,1.658,1.658,0,0,1,.586-.113,2.8,2.8,0,0,1,1.971,1.156,22.8,22.8,0,0,1,1.643,2.271l.424.63.433.627c.169.242.328.471.47.7.142-.23.3-.459.471-.7.043-.057.085-.128.129-.187q.386-.556.728-1.07a24.424,24.424,0,0,1,1.643-2.271A2.8,2.8,0,0,1,1065.375,228.99Zm-9.855,1.57a.05.05,0,0,0-.042.015c-.028.014-.085.028-.158.213a3.064,3.064,0,0,0-.114,1,24.278,24.278,0,0,0,.515,3.642,20.7,20.7,0,0,0,.684,2.842,2.848,2.848,0,0,0,.557,1.114,6.973,6.973,0,0,0,1.186-1.6,15.689,15.689,0,0,0,1.157-2.271,3.232,3.232,0,0,0-.157-.3,5.512,5.512,0,0,0-.428-.643,2.077,2.077,0,0,0-.129-.185c-.257-.372-.5-.744-.743-1.086a20.859,20.859,0,0,0-1.528-2.114C1055.791,230.589,1055.562,230.56,1055.52,230.56Zm9.887-.014c-.046,0-.275.028-.8.628a20.829,20.829,0,0,0-1.527,2.114c-.243.356-.486.714-.744,1.086l-.127.183a7.318,7.318,0,0,0-.414.615,1.525,1.525,0,0,0-.158.3,15.533,15.533,0,0,0,1.158,2.271,7.02,7.02,0,0,0,1.185,1.6,2.59,2.59,0,0,0,.557-1.114,21.382,21.382,0,0,0,.685-2.842,26.234,26.234,0,0,0,.514-3.642,2.728,2.728,0,0,0-.113-1c-.087-.157-.143-.171-.173-.185a.133.133,0,0,0-.038-.014Z" transform="translate(-1050.348 -224.99)"/></g></svg>