<?xml version="1.0" standalone="no"?><!DOCTYPE svg PUBLIC "-//W3C//DTD SVG 1.1//EN" "http://www.w3.org/Graphics/SVG/1.1/DTD/svg11.dtd"><svg t="1757680278444" class="icon" viewBox="0 0 1024 1024" version="1.1" xmlns="http://www.w3.org/2000/svg" p-id="5392" xmlns:xlink="http://www.w3.org/1999/xlink" width="300" height="300"><path d="M778.24 931.84c-71.68 23.893333-184.32 27.306667-307.2 27.306667-235.52 0-416.426667-27.306667-416.426667-98.986667 0-133.12 122.88-249.173333 300.373334-286.72-102.4-47.786667-160.426667-163.84-136.533334-276.48C242.346667 184.32 341.333333 102.4 453.973333 102.4c112.64 0 208.213333 78.506667 235.52 191.146667 23.893333 112.64-27.306667 228.693333-129.706666 276.48 27.306667 6.826667 54.613333 13.653333 81.92 23.893333-27.306667 23.893333-40.96 58.026667-40.96 95.573333-3.413333 122.88 112.64 197.973333 177.493333 242.346667z m-27.306667-334.506667c27.306667 0 51.2 13.653333 68.266667 34.133334 17.066667-20.48 40.96-34.133333 68.266667-34.133334 51.2 0 92.16 40.96 92.16 95.573334 0 105.813333-116.053333 163.84-153.6 197.973333l-3.413334 3.413333-6.826666-6.826666c-37.546667-34.133333-153.6-88.746667-153.6-197.973334 0-51.2 40.96-92.16 88.746666-92.16z" p-id="5393"></path></svg>