<svg xmlns="http://www.w3.org/2000/svg" width="22.136" height="20.5" viewBox="0 0 22.136 20.5"><defs><linearGradient id="icon-ks_svg__a" x1="1" y1="0.98" x2="-0.289" y2="-0.286" gradientUnits="objectBoundingBox"><stop offset="0" stop-color="#ff7800"></stop><stop offset="1" stop-color="#fff"></stop></linearGradient><clipPath id="icon-ks_svg__b"><path d="M0 0h13.062v13.062H0z" style="fill: rgb(255, 255, 255);"></path></clipPath><filter id="icon-ks_svg__c" x="-6.259" y="-6.911" width="33.018" height="34.143" filterUnits="userSpaceOnUse"><feOffset></feOffset><feGaussianBlur stdDeviation="4" result="d"></feGaussianBlur><feFlood flood-color="#a83e01" flood-opacity="0.302"></feFlood><feComposite operator="in" in2="d"></feComposite><feComposite in="SourceGraphic"></feComposite></filter></defs><path d="M2.991 20.5a1 1 0 0 1-1-1v-7.725a.5.5 0 0 1-.148-.071l-1.5-1.043a.5.5 0 0 1 0-.821L1.842 8.8a.5.5 0 0 1 .148-.071V1a1 1 0 0 1 1-1h19.27v20.5Z" transform="rotate(180 11.13 10.25)" style="fill: url(&quot;#icon-ks_svg__a&quot;);"></path><g transform="translate(3.628 3.628)" style="clip-path: url(&quot;#icon-ks_svg__b&quot;);"><path transform="rotate(2 -7.706 2.078)" d="M0 0h12.919v12.919H0z" style="fill: none;"></path><g style="filter: url(&quot;#icon-ks_svg__c&quot;);"><path d="M6.414 5.664a1.6 1.6 0 0 1 1.6 1.594v1.266a1.6 1.6 0 0 1-1.6 1.594H4.056a1.6 1.6 0 0 1-1.524-1.1l-1.4.7a.78.78 0 0 1-1.05-.342A.77.77 0 0 1 0 9.029V6.758a.779.779 0 0 1 1.13-.69l1.4.7a1.6 1.6 0 0 1 1.526-1.104h2.358Zm-.01.821H4.08a.8.8 0 0 0-.8.784V8.5a.8.8 0 0 0 .789.8h2.322a.8.8 0 0 0 .8-.784V7.281a.8.8 0 0 0-.788-.8Zm-5.367.494a.212.212 0 0 0-.212.207v1.427a.213.213 0 0 0 .305.19l1.319-.669V7.66L1.133 7a.213.213 0 0 0-.1-.023ZM3 .975a2.171 2.171 0 0 1 1.893 1.1 1.851 1.851 0 1 1-.239 2.449A2.164 2.164 0 1 1 3 .975Zm0 .867a1.29 1.29 0 1 0 1.3 1.29A1.293 1.293 0 0 0 3 1.842Zm3.16.61a.985.985 0 1 0 .991.985.987.987 0 0 0-.991-.985Z" transform="translate(2.61 .98)" style="stroke: transparent; stroke-miterlimit: 10; fill-rule: evenodd; fill: rgb(255, 255, 255);"></path></g></g></svg>