<svg xmlns="http://www.w3.org/2000/svg" width="23.27" height="21.681" viewBox="0 0 23.27 21.681"><defs><linearGradient id="icon-zhihu_svg__a" x1="0.085" x2="0.94" y2="0.967" gradientUnits="objectBoundingBox"><stop offset="0" stop-color="#1387e7"></stop><stop offset="1" stop-color="#449feb"></stop></linearGradient></defs><g data-name="\u7EC4 77947"><path data-name="\u8054\u5408 533" d="M4.006 20.681a2 2 0 0 1-2-2v-6.8a.5.5 0 0 1-.145-.07l-1.523-1.06a.5.5 0 0 1 0-.821L1.86 8.871a.506.506 0 0 1 .145-.07V2a2 2 0 0 1 2-2h16.39a2 2 0 0 1 2 2v16.681a2 2 0 0 1-2 2Z" transform="rotate(180 11.447 10.59)" stroke="rgba(0,0,0,0)" stroke-miterlimit="10" fill="url(#icon-zhihu_svg__a)"></path><g data-name="\u7EC4 64190"><path data-name="\u77E9\u5F62 19598" fill="none" d="M4.296 4.491h13.062v13.062H4.296z"></path><g data-name="\u7EC4 504" transform="translate(5.667 5.348)"><rect data-name="\u77E9\u5F62 3265" width="10.667" height="10.667" rx="2" fill="#fff"></rect><path data-name="\u8DEF\u5F84 751" d="M5.198 5.282c-.039-.107-.072-.128-.188-.128H3.864c-.053 0-.1.005-.093-.079q.056-.82.048-1.641c0-.081.017-.105.1-.1.368.005.737 0 1.1 0 .058 0 .089-.012.081-.076a2.141 2.141 0 0 0-.015-.222c-.049-.234-.1-.269-.3-.266-.672.005-1.343 0-2.014 0-.1 0-.1 0-.072-.1q.117-.429.276-.846c.021-.054.011-.074-.049-.065a.851.851 0 0 0-.757.582c-.16.468-.317.939-.516 1.392-.073.165-.15.33-.226.494.01.005.015.011.02.011a1.056 1.056 0 0 0 .774-.365 1.473 1.473 0 0 0 .234-.491.068.068 0 0 1 .075-.055h.606c.045 0 .057.012.056.056v.335c-.022.252-.016.5-.016.754l-.019.562c0 .119 0 .12-.12.12H1.862a.266.266 0 0 0-.243.146.258.258 0 0 0-.068.133.363.363 0 0 0-.064.181c-.052.127-.049.133.08.133h1.527a4.319 4.319 0 0 1-1.763 3.1.289.289 0 0 0 .133.044 1.412 1.412 0 0 0 .512 0 1.179 1.179 0 0 0 .7-.355 3.664 3.664 0 0 0 .675-1.194c.052-.139.093-.283.145-.444l1.339 1.6a.35.35 0 0 0 .025-.06 2.171 2.171 0 0 0 .061-.51.68.68 0 0 0-.127-.447q-.415-.495-.85-.971c-.044-.047-.076-.044-.121 0-.089.075-.181.145-.277.222a.113.113 0 0 1 0-.034 4.183 4.183 0 0 0 .175-.911c0-.042.028-.039.056-.039h1.4c.064 0 .093-.011.089-.084a1.44 1.44 0 0 0-.065-.385Zm3.468-2.521c0-.065-.013-.089-.084-.089H5.668c-.067 0-.082.021-.082.083V8.04c0 .047.016.061.062.06h.409c.08 0 .13.017.15.1.048.172.1.342.145.515.014.053.039.032.063.016l.455-.284.3-.192a.96.96 0 0 0 .215-.138.6.6 0 0 1 .089-.012h1.089c.077 0 .1-.016.1-.1V2.763ZM7.379 7.525h.485-.488Zm-.237.1c-.145.083-.282.178-.423.269-.072.047-.082.044-.1-.039l-.093-.31c-.01-.035-.035-.037-.063-.038-.057 0-.114-.007-.172 0s-.073-.019-.073-.074V3.367c0-.078.019-.1.1-.1q.814.005 1.63 0c.081 0 .1.024.1.1V7.499c-.216 0-.431 0-.646.005-.029 0-.07-.017-.073.037-.077-.008-.122.056-.18.089Zm.075.568-.006.007Z" fill="#1387e7"></path></g></g></g></svg>