<svg xmlns="http://www.w3.org/2000/svg" width="22.27" height="20.681" viewBox="0 0 22.27 20.681"><defs><linearGradient id="icon-baidu_svg__a" x1="1" y1="0.95" x2="0" y2="0.055" gradientUnits="objectBoundingBox"><stop offset="0" stop-color="#6e87ef"></stop><stop offset="1" stop-color="#4e6ef2"></stop></linearGradient></defs><g data-name="\u7EC4 77946"><path data-name="\u8054\u5408 533" d="M3.005 20.681a1 1 0 0 1-1-1v-7.8a.5.5 0 0 1-.145-.07l-1.522-1.06a.5.5 0 0 1 0-.821L1.86 8.871a.506.506 0 0 1 .145-.07V1a1 1 0 0 1 1-1h19.39v20.681Z" transform="rotate(180 11.197 10.34)" fill="url(#icon-baidu_svg__a)"></path><g data-name="\u7EC4 64190"><path data-name="\u77E9\u5F62 19598" fill="none" d="M3.796 3.991h13.062v13.062H3.796z"></path><path data-name="\u8DEF\u5F84 33700" d="M6.169 10.314c1.305-.28 1.127-1.84 1.087-2.181-.064-.526-.682-1.445-1.521-1.372-1.056.095-1.211 1.621-1.211 1.621-.142.705.342 2.212 1.644 1.932Zm1.385 2.712a1.109 1.109 0 0 0-.05.634.72.72 0 0 0 .621.572h.683v-1.67h-.731a.8.8 0 0 0-.523.464ZM8.59 7.7c.722 0 1.3-.83 1.3-1.855s-.579-1.854-1.3-1.854-1.3.83-1.3 1.854S7.874 7.7 8.59 7.7Zm3.1.122c.963.125 1.583-.9 1.705-1.683a1.751 1.751 0 0 0-1.176-1.836c-.683-.157-1.536.937-1.614 1.651-.093.873.124 1.744 1.086 1.868Zm2.36 4.58a13.273 13.273 0 0 1-2.36-2.4 1.918 1.918 0 0 0-3.415-.156 7.76 7.76 0 0 1-1.55 1.682c-.125.155-1.8 1.058-1.428 2.709a1.8 1.8 0 0 0 1.678 1.619 7.319 7.319 0 0 0 2.079-.155 4.367 4.367 0 0 1 2.078.062s2.609.873 3.322-.809a2.1 2.1 0 0 0-.4-2.555Zm-4.464 2.5h-1.7a1.492 1.492 0 0 1-1.062-.731 1.936 1.936 0 0 1-.125-1.17 1.488 1.488 0 0 1 1.219-1.1h.9v-1.11l.769.012v4.1Zm3.159-.012h-1.948c-.757-.195-.792-.732-.792-.732v-2.156l.792-.011v1.937c.048.206.306.245.306.245h.8v-2.171h.843v2.889Zm2.762-5.763a1.51 1.51 0 0 0-1.458-1.5c-1.151 0-1.3 1.059-1.3 1.808 0 .715.061 1.713 1.489 1.68s1.274-1.611 1.274-1.985Z" fill="#fff"></path></g></g></svg>