<?xml version="1.0" standalone="no"?><!DOCTYPE svg PUBLIC "-//W3C//DTD SVG 1.1//EN" "http://www.w3.org/Graphics/SVG/1.1/DTD/svg11.dtd"><svg t="1744881365050" class="icon" viewBox="0 0 1024 1024" version="1.1" xmlns="http://www.w3.org/2000/svg" p-id="22546" xmlns:xlink="http://www.w3.org/1999/xlink" width="300" height="300"><path d="M535.2448 118.272h68.4544l-53.3504 435.5584H481.8944l53.3504-435.5072zM326.7072 118.272c21.6576 0 34.2528 10.496 37.7344 31.3856l66.048 404.1728H358.0928L338.944 428.032H151.6032l-50.4832 125.8496H26.368l166.9632-408.832c7.3728-17.7664 20.8896-26.6752 40.6016-26.6752h92.7744zM250.7776 182.1696L177.1008 364.1856h151.9616l-27.8528-182.0672h-50.432z" p-id="22547"></path><path d="M745.984 88.2688a37.12 37.12 0 0 1 46.3872-16.2816c61.1328 26.112 112.896 65.0752 151.7056 114.3296 45.056 57.1392 71.168 126.3616 76.032 201.3696 4.9152 75.008-11.6224 153.4464-48.0768 228.1984-36.4032 74.752-91.648 143.5136-160.5632 199.9872a663.0912 663.0912 0 0 1-234.3424 123.5456c-84.8896 24.576-171.3152 30.5152-251.5968 17.2544-80.2816-13.2608-151.808-45.2608-208.0768-93.184A355.7376 355.7376 0 0 1 14.848 718.9504c-7.7824-20.3776 3.84-42.3424 24.32-49.7664 23.296-8.4992 48.64 5.0176 58.5728 27.7504a299.8784 299.8784 0 0 0 81.152 108.9024c47.36 40.2944 107.5712 67.2768 175.104 78.4384 67.584 11.1616 140.3904 6.144 211.8144-14.5408a558.2336 558.2336 0 0 0 197.2736-103.936c58.0608-47.616 104.4992-105.472 135.168-168.448 30.72-62.8736 44.5952-128.9216 40.448-192.0512a303.3088 303.3088 0 0 0-64-169.472 318.464 318.464 0 0 0-108.6464-87.5008c-22.272-11.1104-32.6144-38.6048-20.0704-60.0576z"  p-id="22548"></path><path d="M496.4352 750.08c0 35.1232-42.1376 63.5904-94.0544 63.5904s-94.0032-28.4672-94.0032-63.5904c0-35.072 42.0864-63.488 94.0032-63.488 51.9168 0 94.0544 28.416 94.0544 63.488zM764.0576 597.6576c18.3296 29.9008-2.6624 76.1344-46.9504 103.3216-44.2368 27.136-95.0272 24.8832-113.3568-5.0176-18.3296-29.952 2.6624-76.1856 46.9504-103.3216 44.288-27.136 95.0272-24.8832 113.3568 5.0176zM835.328 319.0784c34.8672 3.84 58.5216 48.8448 52.7872 100.4544-5.6832 51.6096-38.6048 90.3168-73.472 86.4256-34.8672-3.84-58.5216-48.8448-52.7872-100.4544 5.6832-51.6096 38.6048-90.3168 73.472-86.4256z"  p-id="22549"></path></svg>