<?xml version="1.0" standalone="no"?><!DOCTYPE svg PUBLIC "-//W3C//DTD SVG 1.1//EN" "http://www.w3.org/Graphics/SVG/1.1/DTD/svg11.dtd"><svg t="1745413106946" class="icon" viewBox="0 0 1097 1024" version="1.1" xmlns="http://www.w3.org/2000/svg" p-id="8015" xmlns:xlink="http://www.w3.org/1999/xlink" width="321.38671875" height="300"><path d="M694.857143 768v-512a36.571429 36.571429 0 0 1 73.142857 0v512a36.571429 36.571429 0 1 1-73.142857 0z m-146.285714-73.142857v-365.714286a36.571429 36.571429 0 0 1 73.142857 0v365.714286a36.571429 36.571429 0 0 1-73.142857 0z m-146.285715-73.142857v-219.428572a36.571429 36.571429 0 0 1 73.142857 0v219.428572a36.571429 36.571429 0 0 1-73.142857 0z" p-id="8016"></path><path d="M73.142857 365.348571V146.285714a146.285714 146.285714 0 0 1 146.285714-146.285714h731.428572a146.285714 146.285714 0 0 1 146.285714 146.285714v731.428572a146.285714 146.285714 0 0 1-146.285714 146.285714H219.428571a146.285714 146.285714 0 0 1-146.285714-146.285714v-146.285715h73.142857v146.285715a73.142857 73.142857 0 0 0 73.142857 73.142857h731.428572a73.142857 73.142857 0 0 0 73.142857-73.142857V146.285714a73.142857 73.142857 0 0 0-73.142857-73.142857H219.428571a73.142857 73.142857 0 0 0-73.142857 73.142857v219.428572h-0.365714A36.571429 36.571429 0 1 1 73.142857 365.348571V146.285714a146.285714 146.285714 0 0 1 146.285714-146.285714h731.428572a146.285714 146.285714 0 0 1 146.285714 146.285714v731.428572a146.285714 146.285714 0 0 1-146.285714 146.285714H219.428571a146.285714 146.285714 0 0 1-146.285714-146.285714v-146.285715h73.142857v146.285715a73.142857 73.142857 0 0 0 73.142857 73.142857h731.428572a73.142857 73.142857 0 0 0 73.142857-73.142857V146.285714a73.142857 73.142857 0 0 0-73.142857-73.142857H219.428571a73.142857 73.142857 0 0 0-73.142857 73.142857v219.428572h-0.365714z"  p-id="8017"></path><path d="M115.565714 592.969143l95.085715 126.756571a7.314286 7.314286 0 0 1-5.851429 11.702857H14.628571a7.314286 7.314286 0 0 1-5.851428-11.702857l95.085714-126.756571a7.314286 7.314286 0 0 1 11.702857 0z" fill="#A0A3AD" p-id="8018"></path></svg>