<?xml version="1.0" standalone="no"?><!DOCTYPE svg PUBLIC "-//W3C//DTD SVG 1.1//EN" "http://www.w3.org/Graphics/SVG/1.1/DTD/svg11.dtd"><svg t="1744723630672" class="icon" viewBox="0 0 1024 1024" version="1.1" xmlns="http://www.w3.org/2000/svg" p-id="8633" xmlns:xlink="http://www.w3.org/1999/xlink" width="200" height="200"><path d="M497.208889 124.643556c-174.848 0-315.306667 115.427556-315.306667 255.886222 0 0.142222-68.124444 0.142222-68.124444 0C113.777778 203.946667 286.293333 62.151111 497.208889 62.236444c210.972444 0 383.431111 141.710222 383.431111 318.435556 0 23.153778-3.072 34.702222-8.931556 56.945778l54.328889 111.672889c4.380444 8.903111 3.868444 19.427556-1.308444 27.875555-5.518222 8.817778-14.705778 14.620444-25.031111 15.815111-52.707556 6.968889-55.267556 26.680889-55.267556 64.284445v97.194666c0 34.503111-30.577778 62.577778-68.124444 62.577778h-21.987556c-37.688889 0-47.303111 17.976889-47.303111 52.536889v55.381333c0 17.180444-15.246222 31.288889-34.019555 31.288889h-218.737778v-62.577777h184.576v-24.092445c0-69.12 40.192-115.114667 115.427555-115.114667h22.129778v-85.873777c0-64.284444 7.964444-108.288 70.769778-128.227556l-42.467556-87.267555a29.013333 29.013333 0 0 1-1.621333-21.361778c6.314667-20.337778 9.443556-30.037333 9.443556-51.143111 0-140.515556-140.373333-255.943111-315.306667-255.943111zM347.249778 455.111111H296.391111a11.377778 11.377778 0 0 0-10.638222 7.310222l-113.208889 296.106667a11.377778 11.377778 0 0 0 10.638222 15.445333h44.145778a11.377778 11.377778 0 0 0 10.666667-7.480889l22.300444-61.411555a11.377778 11.377778 0 0 1 10.695111-7.480889h101.660445a11.377778 11.377778 0 0 1 10.695111 7.480889l22.300444 61.411555a11.377778 11.377778 0 0 0 10.695111 7.480889h44.145778a11.377778 11.377778 0 0 0 10.609778-15.445333l-113.208889-296.106667a11.377778 11.377778 0 0 0-10.638222-7.310222z m194.958222 0h-41.386667a11.377778 11.377778 0 0 0-11.377777 11.377778v296.106667c0 6.257778 5.091556 11.377778 11.377777 11.377777h41.386667a11.377778 11.377778 0 0 0 11.377778-11.377777V466.488889a11.377778 11.377778 0 0 0-11.377778-11.377778z m-242.915556 187.306667h45.141334a11.377778 11.377778 0 0 0 10.695111-15.217778l-22.471111-62.748444a11.377778 11.377778 0 0 0-21.390222-0.056889l-22.670223 62.776889a11.377778 11.377778 0 0 0 10.695111 15.246222z" p-id="8634"></path></svg>