<?xml version="1.0" standalone="no"?><!DOCTYPE svg PUBLIC "-//W3C//DTD SVG 1.1//EN" "http://www.w3.org/Graphics/SVG/1.1/DTD/svg11.dtd"><svg t="1745412994787" class="icon" viewBox="0 0 1024 1024" version="1.1" xmlns="http://www.w3.org/2000/svg" p-id="5954" xmlns:xlink="http://www.w3.org/1999/xlink" width="300" height="300"><path d="M924.80600423 61.68015954h-824.06483836c-52.15845691 0-94.62203254 48.86219725-94.62203405 108.77655828v648.58750352c0 60.10825872 42.26967942 108.77655825 94.62203405 108.77655827h824.06483836c52.15845691 0 94.62203254-49.05609497 94.62203405-108.77655827V170.65061553c0.19389771-60.30215644-42.0757817-108.97045598-94.62203405-108.97045599zM196.13878928 819.43201678c0 20.16535189-13.57283256 36.45275098-31.99310652 36.45274947H101.32285752c-17.64468309 0-31.99310501-15.51180822-31.99310503-36.45274947v-71.54821794c0-20.16535189 13.57283256-36.45275098 31.99310503-36.45275095h62.82282524c17.64468309 0 31.99310501 15.51180822 31.99310652 36.45275095v71.54821794z m0-288.90743822c0 20.16535189-13.57283256 36.45275098-31.99310652 36.45275095H101.32285752c-17.64468309 0-31.99310501-15.31791051-31.99310503-36.45275095v-71.54821794c0-20.16535189 13.57283256-36.45275098 31.99310503-36.45275096h62.82282524c17.64468309 0 31.99310501 15.51180822 31.99310652 36.45275096v71.54821794z m0-288.71354052c0 20.16535189-13.57283256 36.45275098-31.99310652 36.45275094H101.32285752c-17.64468309 0-31.99310501-15.51180822-31.99310503-36.45275094v-71.54821795c0-20.16535189 13.57283256-36.45275098 31.99310503-36.45274947h62.82282524c17.64468309 0 31.99310501 15.51180822 31.99310652 36.45274947v71.54821795z m570.05897086 614.07372821H259.54330766V134.00396833h506.65445248v721.88079792z m190.01965747-36.45274947c0 20.16535189-13.57283256 36.45275098-31.99310653 36.45274947H861.40148583c-17.64468309 0-31.7992073-15.51180822-31.7992073-36.45274947v-71.54821794c0-20.16535189 13.57283256-36.45275098 31.99310503-36.45275095h62.82282523c17.64468309 0 31.7992073 15.51180822 31.79920882 36.45275095v71.54821794z m0-288.90743822c0 20.16535189-13.57283256 36.45275098-31.99310653 36.45275095H861.40148583c-17.64468309 0-31.7992073-15.51180822-31.7992073-36.45275095v-71.54821794c0-20.16535189 13.57283256-36.45275098 31.99310503-36.45275096h62.82282523c17.64468309 0 31.7992073 15.51180822 31.79920882 36.45275096v71.54821794z m0-288.71354052c0 20.16535189-13.57283256 36.45275098-31.99310653 36.45275094H861.40148583c-17.64468309 0-31.7992073-15.51180822-31.7992073-36.45275094v-71.54821795c0-20.16535189 13.57283256-36.45275098 31.99310503-36.45274947h62.82282523c17.64468309 0 31.7992073 15.51180822 31.79920882 36.45274947v71.54821795z m0 0" p-id="5955"></path><path d="M606.62002748 640.85231853h-48.47440181l-34.70767304-93.07085232h-141.54525413l-32.76869589 93.07085232h-48.4744018l129.52360178-340.09640656h46.9232216l129.52360329 340.09640656z m-96.94880511-131.65647666l-51.38286606-141.35135792c-1.55118023-4.45964445-3.29625966-12.40944626-5.23523532-23.65550777h-1.1633848c-1.55118023 10.27657291-3.49015738 18.22637475-5.429133 23.65550777l-50.99507212 141.35135792h114.2056913zM699.69087981 300.75591197v340.09640656H655.87002016V300.75591197h43.82085965z" p-id="5956"></path></svg>