<?xml version="1.0" standalone="no"?><!DOCTYPE svg PUBLIC "-//W3C//DTD SVG 1.1//EN" "http://www.w3.org/Graphics/SVG/1.1/DTD/svg11.dtd"><svg t="1757512376351" class="icon" viewBox="0 0 1024 1024" version="1.1" xmlns="http://www.w3.org/2000/svg" p-id="4565" xmlns:xlink="http://www.w3.org/1999/xlink" width="300" height="300"><path d="M605.37666333 110.33713778a407.2455589 407.2455589 0 0 0-90.24549888-64.15246223c-18.68989667-9.73331001-33.52044999-15.70436779-42.54985444-18.51998776A24.27259221 24.27259221 0 0 0 441.05121223 50.82074112c0 3.15543666-0.24272555 9.5634011-0.97090446 18.76271331a507.46709333 507.46709333 0 0 1-6.99050667 52.0404389c-10.00030777 53.98224555-28.01057223 107.94021888-55.92405333 158.11166777a422.82856334 422.82856334 0 0 1-82.81808555 106.0469578c-8.22840889-19.24816555-14.22373888-46.36065223-14.22373888-65.4146378a24.27259221 24.27259221 0 0 0-39.87987001-18.59280555C151.30927445 376.31620779 99.36592555 482.84861667 99.36592555 597.31816334c0 218.98732999 188.86504334 395.88598557 421.08093667 395.88598443s421.08093667-176.89865443 421.08093668-395.88598443c0-161.80110222-78.59465443-329.42762667-200.39452445-393.11891001-12.98583666-6.79632555-31.33591666-4.70888334-36.82152334 15.31600555-1.74762667 6.43223666-1.21363001 10.34012445 0.48545223 16.84518002 0.63108779 2.37871445 4.61179221 15.07328 5.75260445 19.17534777 3.39816334 12.16056889 5.33996999 23.54441443 5.46133333 34.29717333-21.82106112-72.62359666-60.12321223-132.13999445-110.63447779-179.49582222z m158.7670289 168.47606556l1.21362887 1.06799332-1.21362887-1.06799332z m128.8389211 318.50496c0 191.43793778-166.43716779 347.3408-372.53575111 347.3408C314.37255111 944.63468999 147.91111111 788.73182777 147.91111111 597.29388999c0-84.71134777 32.67091001-164.49536 90.34259001-226.77883221 6.84487111 27.45230222 18.59280555 54.22497223 33.64181333 69.12834332a24.27259221 24.27259221 0 0 0 32.30681998 1.67480889c47.81700779-38.54487666 85.97352334-85.14825443 115.36763336-138.0139611 30.68055666-55.14732999 50.34135666-114.00836779 61.26402332-172.86940444 2.8884389-15.53445888 5.00015445-30.26792334 6.43223666-43.98193778l5.4127889 2.76707555A358.99164445 358.99164445 0 0 1 572.19603001 145.72657778c58.93385443 55.29296555 98.95936 129.20300999 111.60537998 225.22538667a24.27259221 24.27259221 0 0 0 41.14204444 14.07810332 134.10607445 134.10607445 0 0 0 28.73875002-41.19058887c9.46631111-21.45697223 12.37902222-42.84112555 10.48576-65.02627556 78.88592555 70.29342777 128.8389211 196.24391111 128.8389211 318.50496z" p-id="4566"></path><path d="M468.67342222 597.68225223a162.60209778 162.60209778 0 0 1-8.93231445-18.78698666 97.57582222 97.57582222 0 0 1-2.18453334-5.89824c0.29127111 0.87381333 0.24272555 0.65536 0.24272669 3.76225109a24.27259221 24.27259221 0 0 0-36.40888889-21.02006443c-17.23354112 9.95176334-41.94304 28.54456889-66.65254002 55.65705444-41.77313223 45.8752-67.16226333 100.12444445-67.16226332 162.1409189 0 121.67850667 104.61487445 219.66696334 232.87125333 219.6669622 128.28065223 0 232.87125333-97.98845667 232.87125333-219.6669622 0-106.07123001-39.17596445-191.02530333-104.17796778-255.97876224a382.77878557 382.77878557 0 0 0-71.24005888-56.02114333 263.26053888 263.26053888 0 0 0-33.66608555-17.81608334 24.27259221 24.27259221 0 0 0-32.93790891 27.91348224c0.53399666 2.3544411 1.45635555 7.13614222 2.40298667 13.83537777 3.51952555 25.07358777 3.78652445 51.70062222-1.23790222 75.97321444-4.92733667 23.83568555-14.49073778 42.84112555-29.41838222 56.36096a95.9495589 95.9495589 0 0 1-14.36937444-20.12197888z m-46.65192334 16.96654222c12.67029333 23.54441443 33.27772445 48.49664 54.61333333 55.5356911a24.27259221 24.27259221 0 0 0 20.38897778-2.42725888c34.22435555-21.18997333 54.37060779-54.90460445 62.98737778-96.50782777 4.12634112-19.90352555 5.41278777-40.38959445 4.63606556-60.58439111a335.20450333 335.20450333 0 0 1 50.1957211 41.26340664c56.31241443 56.23959666 89.92995555 129.13019221 89.92995556 221.60877114 0 94.12911445-82.1869989 171.12177778-184.32606777 171.12177777s-184.32606777-76.99266333-184.32606777-171.12177777c0-48.54518557 20.24334222-91.82321778 54.51624221-129.44573668a278.16391111 278.16391111 0 0 1 31.38446222-29.44265444z" p-id="4567"></path></svg>