<svg xmlns="http://www.w3.org/2000/svg" width="48" height="48" viewBox="0 0 48 48"><defs><style>.a{fill:#ffb700;}.b{fill:#08f;}.c{fill:#fff;}</style></defs><g transform="translate(-54 -415)"><circle class="a" cx="11.573" cy="11.573" r="11.573" transform="translate(56 415)"/><circle class="b" cx="24" cy="24" r="24" transform="translate(54 415)"/><g transform="translate(-1.001)"><circle class="a" cx="7.717" cy="7.717" r="7.717" transform="translate(87.567 443.567)"/><g transform="translate(26.701 382.731)"><path class="c" d="M73.11,653.671a.422.422,0,0,0-.567-.147l-3.96,2.216-3.96-2.216a.422.422,0,0,0-.567.147.4.4,0,0,0,.152.549l4.168,2.332,0,0,.009,0,.01.005.007,0,.013.006,0,0a.423.423,0,0,0,.151.032h.019a.423.423,0,0,0,.152-.032l0,0,.013-.006.007,0,.01-.005.009,0,0,0,4.167-2.332A.4.4,0,0,0,73.11,653.671Z" transform="translate(0 -583.47)"/><path class="c" d="M64.208,473.41l4.153,2.324a.426.426,0,0,0,.111.047l.017,0h0l.013,0h.007l.01,0h.12l.01,0h.007l.013,0h0l.017,0a.424.424,0,0,0,.11-.047l4.153-2.324a.4.4,0,0,0,.152-.549.422.422,0,0,0-.567-.147l-3.96,2.216-3.96-2.215a.422.422,0,0,0-.567.147A.394.394,0,0,0,64.208,473.41Z" transform="translate(0 -404.51)"/><path class="c" d="M64.086,66.9a.407.407,0,0,0,.167.155l4.136,2.314a.426.426,0,0,0,.172.06h0l.016,0h.07l.016,0h0a.426.426,0,0,0,.172-.06l4.151-2.322.005,0,.008,0,.009-.006.008-.005.009-.006.007-.005.01-.007.005,0L73.06,67l0,0,.011-.011,0,0,.012-.013h0a.4.4,0,0,0,.058-.083v0l.007-.015,0,0,.005-.012,0-.008,0-.008,0-.012v0l0-.015a.388.388,0,0,0,.013-.076h0q0-.009,0-.018v-.019c0-.006,0-.012,0-.018h0a.388.388,0,0,0-.013-.076l0-.015v0l0-.012,0-.008,0-.008-.005-.012,0,0-.007-.015v0a.4.4,0,0,0-.058-.083h0l-.012-.013,0,0-.012-.011,0,0-.01-.009-.005,0-.01-.007-.007-.005-.009-.006-.008-.005L73,66.364l-.008-.005-.005,0L68.82,64.024l0,0-.007,0-.013-.007h0a.426.426,0,0,0-.406.024l-4.15,2.322,0,0-.01.006-.008,0-.008.006-.01.007-.005,0-.012.009h0a.394.394,0,0,0-.092.509Zm4.527-2.068L71.95,66.7l-3.338,1.867L65.275,66.7Z" transform="translate(-0.03)"/></g></g><path class="c" d="M11036.382,6908.94h-11.931a2.454,2.454,0,0,1-2.451-2.451,7.484,7.484,0,0,1,7.477-7.476h4.018a7.457,7.457,0,0,1,6.649,4.055,6.529,6.529,0,0,0-3.762,5.871Zm-5.122-11.37a5.786,5.786,0,1,1,5.784-5.784A5.791,5.791,0,0,1,11031.26,6897.57Zm13.446-.294h-5.763a1.058,1.058,0,0,1,0-2.116h5.76a1.058,1.058,0,1,1,0,2.116Zm0-5.166h-5.763a1.058,1.058,0,0,1,0-2.116h5.76a1.058,1.058,0,1,1,0,2.116Z" transform="translate(-10954.881 -6459.966)"/></g></svg>