<svg xmlns="http://www.w3.org/2000/svg" width="20" height="20" viewBox="0 0 20 20"><defs><style>.a{fill:#f06198;}.b{fill:#fff;}</style></defs><g transform="translate(-1001.8 -1347)"><rect class="a" width="20" height="20" rx="4" transform="translate(1001.8 1347)"/><path class="b" d="M13.318,2.419a3.731,3.731,0,0,1,.414-.045,7.76,7.76,0,0,1,.139,1.177c-.041.008-.335.075-.335.075-.023-.154-.214-1.109-.218-1.207m.564-.109.154,1.222c.079,0,.4-.026.429-.03-.045-.462-.124-1.192-.124-1.192a1.177,1.177,0,0,0-.459,0m-.3,1.7a2.668,2.668,0,0,1,.948-.09c.128.462.361,3.057.384,3.162-.158.019-.677.064-.718.075-.034-.2-.613-3.023-.613-3.147m2.576-1.557a4.057,4.057,0,0,1,.414-.011,9.6,9.6,0,0,1,0,1.184l-.335.03c-.008-.15-.09-1.1-.083-1.2m.568-.03.03,1.207c.079,0,.395.019.429.015-.008-.462,0-1.192,0-1.192a2.077,2.077,0,0,0-.459-.03M16.235,4.04a2.713,2.713,0,0,1,.951.019c.053.541.045,3.064.053,3.17-.162,0-.677.008-.718.015-.008-.2-.3-3.079-.286-3.2M14.585.938c.41,2.091.722,5.662.733,5.892,0,0,.323.008.688.03-.214-2.252-.478-5.85-.474-5.967-.09-.1-.948.045-.948.045m-.9,4.944C13.6,5.3,11.505,4.63,10.325,4.844c0,0-.147-1.293-.2-2.545-.049-1.075-.008-2.121,0-2.294A8.907,8.907,0,0,0,8.738.524a54.272,54.272,0,0,1,.948,7.144,6.468,6.468,0,0,0,1.726-.143c1.09-.211,2.38-.869,2.271-1.643M11.118,6.938l-.184-1.327a9.61,9.61,0,0,1,1.3.474,12.094,12.094,0,0,1-1.113.854M4.58,2.419a3.731,3.731,0,0,1,.414-.045,7.76,7.76,0,0,1,.139,1.177c-.041.008-.335.075-.335.075-.023-.154-.214-1.109-.218-1.207m.564-.109L5.3,3.532c.079,0,.4-.026.429-.03C5.678,3.039,5.6,2.31,5.6,2.31a1.177,1.177,0,0,0-.459,0m-.3,1.7a2.668,2.668,0,0,1,.948-.09c.128.462.361,3.057.384,3.162-.158.019-.677.064-.718.075-.034-.2-.613-3.023-.613-3.147M7.415,2.449a4.057,4.057,0,0,1,.414-.011,9.6,9.6,0,0,1,0,1.184l-.335.03c-.008-.15-.086-1.1-.083-1.2m.568-.03.03,1.207c.079,0,.395.019.429.015-.008-.462,0-1.192,0-1.192a2.333,2.333,0,0,0-.459-.03M7.5,4.04a2.713,2.713,0,0,1,.951.019c.053.541.045,3.064.053,3.17-.162,0-.677.008-.718.015,0-.2-.3-3.079-.286-3.2M5.847.938c.41,2.091.722,5.662.733,5.892,0,0,.323.008.688.03C7.054,4.607,6.79,1.009,6.794.889c-.09-.1-.948.049-.948.049m-.9,4.944C4.865,5.3,2.767,4.63,1.587,4.844c0,0-.147-1.293-.2-2.545-.049-1.075-.008-2.121,0-2.294A9.326,9.326,0,0,0,0,.524,54.272,54.272,0,0,1,.948,7.668a6.468,6.468,0,0,0,1.726-.143c1.09-.211,2.38-.869,2.271-1.643M2.38,6.938,2.2,5.611a9.61,9.61,0,0,1,1.3.474,12.094,12.094,0,0,1-1.113.854" transform="translate(1003.324 1353.161)"/></g></svg>