<svg xmlns="http://www.w3.org/2000/svg" width="20" height="20" viewBox="0 0 20 20"><defs><style>.a{fill:#ff2552;}.b{fill:none;}.c{fill:#fff;}</style></defs><g transform="translate(-1118.104 -1347.104)"><rect class="a" width="20" height="20" rx="4" transform="translate(1118.104 1347.104)"/><g transform="translate(1118.842 1347.842)"><rect class="b" width="18" height="18" transform="translate(0.262 0.262)"/><path class="c" d="M128.263,378.926a7.557,7.557,0,0,1-.132,2.374,1.542,1.542,0,0,1-.132.528s.2.4.659,1.121c.857-.724.792-4.022.792-4.022Zm5.276,2.44a9.917,9.917,0,0,1-.133-2.374H132.22s-.133,3.3.791,4.022a6.933,6.933,0,0,1,.659-1.121C133.6,381.761,133.6,381.564,133.539,381.366Zm-3.3,1.252h-.792l.4.924H130.9c.4,0,.528-.726.528-.726v-5.34h-1.187v5.143Zm5.34-1.517.99-1.978h-.99l.594-1.648h-1.121l-.859,2.176a.29.29,0,0,0,.263.4h.594l-.659,1.517a.29.29,0,0,0,.263.4h1.45l.33-.858h-.855Zm-1.384,1.385-.594,1.055h1.846l.462-1.055H134.2Zm4.747-3.495h.594v-1.187H136.9v1.122h.791v3.495h-1.055l-.528,1.121h3.824v-1.055h-.989Zm5.407,1.055h-.264v-1.055a1.056,1.056,0,0,0-1.054-1.121h-.792v-.528h-1.121v.528h-.791v1.054h.792v1.055H140v1.055h1.121v2.5h1.121V381.1h2.111v1.583h-1.121l.4.923h.923a.874.874,0,0,0,.856-.857v-1.582A.989.989,0,0,0,144.352,380.048Zm-1.319,0h-.792v-1.122h.792Zm2.439-1.648a.528.528,0,0,0-1.055,0v.527h.528A.567.567,0,0,0,145.473,378.4Z" transform="translate(-127.475 -371.26)"/></g></g></svg>