<?xml version="1.0" standalone="no"?><!DOCTYPE svg PUBLIC "-//W3C//DTD SVG 1.1//EN" "http://www.w3.org/Graphics/SVG/1.1/DTD/svg11.dtd"><svg t="1755618499852" class="icon" viewBox="0 0 1024 1024" version="1.1" xmlns="http://www.w3.org/2000/svg" p-id="1467" xmlns:xlink="http://www.w3.org/1999/xlink" width="200" height="200"><path d="M404.544 385.024c-17.28-11.52-74.624-51.328-74.624-51.328 48.384-69.184 112.192-96.128 200.448-96.128 62.4 0 115.392 20.928 153.216 60.672 37.824 39.744 59.392 96.576 64.32 169.216 20.992 8.832 40.32 19.136 57.92 30.976 70.976 47.68 110.016 119.04 110.016 200.768 0 173.824-142.464 324.8-400.384 324.8C294.016 1024 64 895.168 64 511.616 64 130.176 286.848 0 514.816 0 620.16 0 867.2 15.552 960 322.304l-87.04 22.592C801.024 126.336 650.432 91.52 512.384 91.52c-228.16 0-357.248 138.944-357.248 434.56 0 265.152 144.256 405.952 360.32 405.952 177.728 0 310.208-92.352 310.208-227.584 0-92.032-77.312-136.128-81.28-136.128-15.104 78.976-55.552 211.84-233.216 211.84-103.552 0-192.832-71.552-192.832-165.248 0-133.76 126.976-182.208 227.2-182.208 37.504 0 82.816 2.56 106.432 7.296 0-40.768-34.56-110.592-121.6-110.592-80 0-100.224 25.92-125.888 55.552zM557.824 524.16c-130.56 0-147.456 55.68-147.456 90.624 0 56.192 66.752 74.752 102.4 74.752 65.28 0 132.288-18.048 142.848-155.072a397.888 397.888 0 0 0-97.792-10.304z" fill="#000000" p-id="1468"></path></svg>