<svg xmlns="http://www.w3.org/2000/svg" width="22.27" height="20.681" viewBox="0 0 22.27 20.681"><defs><linearGradient id="icon-bilibili_svg__a" x1="1" y1="0.98" x2="-0.289" y2="-0.286" gradientUnits="objectBoundingBox"><stop offset="0" stop-color="#f38ab3"></stop><stop offset="1" stop-color="#f06198"></stop></linearGradient></defs><g data-name="\u7EC4 77944"><path data-name="\u8054\u5408 533" d="M3.005 20.681a1 1 0 0 1-1-1v-7.8a.5.5 0 0 1-.145-.07l-1.522-1.06a.5.5 0 0 1 0-.821L1.86 8.871a.506.506 0 0 1 .145-.07V1a1 1 0 0 1 1-1h19.39v20.681Z" transform="rotate(180 11.197 10.34)" fill="url(#icon-bilibili_svg__a)"></path><g data-name="\u7EC4 64190"><path data-name="\u77E9\u5F62 19598" fill="none" d="M3 4.182h13.062v13.062H3z"></path><path data-name="\u8DEF\u5F84 33695" d="M13.662 9.673a2.987 2.987 0 0 1 .331-.036 6.213 6.213 0 0 1 .111.942c-.033.006-.268.06-.268.06-.018-.123-.172-.888-.175-.966m.452-.087.123.978c.063 0 .319-.021.343-.024-.036-.37-.1-.954-.1-.954a.942.942 0 0 0-.367 0m-.242 1.357a2.136 2.136 0 0 1 .759-.072c.1.37.289 2.447.307 2.532-.126.015-.542.051-.575.06-.027-.157-.491-2.42-.491-2.52m2.062-1.246a3.248 3.248 0 0 1 .331-.009 7.687 7.687 0 0 1 0 .948L16 10.66c-.006-.12-.072-.882-.066-.963m.455-.024.024.966c.063 0 .316.015.343.012-.006-.37 0-.954 0-.954a1.663 1.663 0 0 0-.367-.024M16 10.97a2.172 2.172 0 0 1 .762.015c.042.433.036 2.453.042 2.538-.129 0-.542.006-.575.012-.006-.157-.238-2.465-.229-2.565m-1.323-2.483c.328 1.674.578 4.533.587 4.717 0 0 .259.006.551.024-.172-1.8-.382-4.684-.379-4.777-.072-.081-.759.036-.759.036m-.722 3.958c-.063-.47-1.743-1-2.688-.831 0 0-.117-1.036-.163-2.038a21.88 21.88 0 0 1 .003-1.84A7.131 7.131 0 0 0 10 8.155a43.451 43.451 0 0 1 .759 5.72 5.178 5.178 0 0 0 1.382-.114c.873-.169 1.905-.7 1.818-1.315m-2.059.845-.146-1.063a7.694 7.694 0 0 1 1.039.379 9.682 9.682 0 0 1-.891.683M6.667 9.673A2.987 2.987 0 0 1 7 9.636a6.213 6.213 0 0 1 .111.942c-.033.006-.268.06-.268.06-.018-.123-.172-.888-.175-.966m.452-.087.123.978c.063 0 .319-.021.343-.024l-.1-.954a.942.942 0 0 0-.367 0m-.245 1.358a2.136 2.136 0 0 1 .759-.072c.1.37.289 2.447.307 2.532-.126.015-.542.051-.575.06-.027-.157-.491-2.42-.491-2.52m2.062-1.246a3.248 3.248 0 0 1 .331-.009 7.686 7.686 0 0 1 0 .948L9 10.66c0-.124-.067-.882-.064-.963m.455-.024.024.966c.063 0 .316.015.343.012-.006-.37 0-.954 0-.954a1.868 1.868 0 0 0-.367-.024M9 10.97a2.172 2.172 0 0 1 .762.015c.042.433.036 2.453.042 2.538-.129 0-.542.006-.575.012 0-.157-.238-2.465-.229-2.565M7.681 8.487c.328 1.674.578 4.533.587 4.717 0 0 .259.006.551.024a179.537 179.537 0 0 1-.379-4.781c-.072-.078-.759.039-.759.039m-.723 3.959c-.063-.47-1.743-1-2.688-.831 0 0-.117-1.036-.163-2.038a20.414 20.414 0 0 1 .004-1.84A7.467 7.467 0 0 0 3 8.155a43.451 43.451 0 0 1 .759 5.72 5.178 5.178 0 0 0 1.381-.114c.873-.169 1.905-.7 1.818-1.315m-2.053.846-.147-1.064a7.694 7.694 0 0 1 1.042.38 9.682 9.682 0 0 1-.891.683" fill="#fff"></path></g></g></svg>