<svg xmlns="http://www.w3.org/2000/svg" width="22.27" height="20.681" viewBox="0 0 22.27 20.681"><defs><linearGradient id="icon-toutiao_svg__a" x1="1" y1="0.98" x2="-0.289" y2="-0.286" gradientUnits="objectBoundingBox"><stop offset="0" stop-color="#ee6b6b"></stop><stop offset="1" stop-color="#f04142"></stop></linearGradient></defs><g data-name="\u7EC4 77945"><path data-name="\u8054\u5408 533" d="M3.005 20.681a1 1 0 0 1-1-1v-7.8a.5.5 0 0 1-.145-.07l-1.522-1.06a.5.5 0 0 1 0-.821L1.86 8.871a.506.506 0 0 1 .145-.07V1a1 1 0 0 1 1-1h19.39v20.681Z" transform="rotate(180 11.197 10.34)" fill="url(#icon-toutiao_svg__a)"></path><g data-name="\u7EC4 77948" fill="#fff"><path data-name="\u8DEF\u5F84 33696" d="M13.416 11.667h-.049c-.04.027-.142 0-.2 0a1.888 1.888 0 0 0-.547.053 1.848 1.848 0 0 1 .218.391c.12.2.258.4.373.6a4.085 4.085 0 0 0 .658-.04h.187a10.969 10.969 0 0 0-.6-1.009Zm-3.56-2.1a2.559 2.559 0 0 1 .444.173c.093 0 .107-.116.147-.187.111-.169.24-.347.351-.52a4.033 4.033 0 0 0 .733-.031h.267a3.669 3.669 0 0 0 .444-.04c.236-.053.524.027.738-.044a.169.169 0 0 1 0 .093c-.044.089-.222.116-.311.16l-.64.329a1.363 1.363 0 0 0-.258.12 2.173 2.173 0 0 1-.587-.218 1.088 1.088 0 0 1-.369-.12c-.1.027-.262.382-.347.471 0 .084.444.2.533.24-.311.147-.609.324-.924.444-.062.027-.187 0-.24.027h-.176a2.181 2.181 0 0 0 0 .538l.564-.027a1.655 1.655 0 0 0 .173-.093c.249-.107.476-.231.711-.347a3.428 3.428 0 0 0 .6-.3 1.911 1.911 0 0 1 .484.173c.2.08.4.116.6.2s.3.133.444.187l.609-.022a1.779 1.779 0 0 0 0-.533l-.4.031a4.715 4.715 0 0 1-.471-.187 2.388 2.388 0 0 1-.48-.173l1.333-.658a4.725 4.725 0 0 0 0-.938c-.658.053-1.28.08-1.973.12a2.89 2.89 0 0 1-.733.027l-.631-.307c-.178.293-.382.578-.56.889a1.78 1.78 0 0 1-.271.444c.014.055.116.05.196.077Zm1.142 2.231c-.049.036-.142 0-.213 0a4.69 4.69 0 0 0-.564.053c-.1.053-.089.169-.133.24a5.6 5.6 0 0 0-.28.511c-.049.08-.067.191-.138.253a.062.062 0 0 1 0 .04l.822-.04c.129-.249.271-.507.4-.751a1.515 1.515 0 0 1 .138-.267c-.005-.03-.005-.014-.032-.041Zm-2.369-.129-.889.044a1.245 1.245 0 0 0 .2.4c.151.3.307.582.444.889l.564-.027a.826.826 0 0 0 .329-.027c.027-.08-.124-.258-.164-.329-.177-.334-.315-.654-.484-.952Z"></path><path data-name="\u8DEF\u5F84 33697" d="M13.847 11.494v-.529c-.609 0-1.1.089-1.684.084v-.271a2.58 2.58 0 0 0-.524.027 1.107 1.107 0 0 0-.271 0h-.022a.925.925 0 0 1 0 .271l-1.676.089v.538a3.015 3.015 0 0 0 .564-.036c.164-.036.347 0 .493-.027s.391.036.493-.027h.138v.8a1.334 1.334 0 0 0 0 .373c.209-.022.542-.04.791-.053v-.8a1.472 1.472 0 0 1 .04-.342c.56 0 1.107-.058 1.644-.093Zm-7.471.12h.267a.849.849 0 0 0-.147.187c-.107.147-.222.293-.329.444a1.24 1.24 0 0 0-.218.284 5.458 5.458 0 0 0-.747.062h-.178v.538a3.59 3.59 0 0 0 .724-.053 1.662 1.662 0 0 1 .3 0c.138-.027.382.036.484-.027a1.88 1.88 0 0 0 .347-.444c.258-.351.6-.7.831-1.071.267 0 .636 0 1.236-.04a1.371 1.371 0 0 0 .227 0 1.849 1.849 0 0 0 0-.542l-.987.053v-1.62a2.893 2.893 0 0 0 0-.733h-.36a.961.961 0 0 0-.227 0 1.006 1.006 0 0 0-.231 0v1.609a2.929 2.929 0 0 1 0 .738l-2.373.133v.538a5.56 5.56 0 0 0 .942-.053c.145-.007.328.051.439-.003Z"></path><path data-name="\u8DEF\u5F84 33698" d="M14.167 5.001H4.833A1.333 1.333 0 0 0 3.5 6.334v9.333a1.333 1.333 0 0 0 1.333 1.334h9.333a1.333 1.333 0 0 0 1.334-1.333V6.334a1.333 1.333 0 0 0-1.333-1.333Zm.609 8.48-10.534.64v-6.32l10.52-.636Z"></path><path data-name="\u8DEF\u5F84 33699" d="M5.54 9.228a4.244 4.244 0 0 0 .444.551.351.351 0 0 0 .213 0h.689c0-.129-.124-.187-.187-.267-.138-.209-.324-.373-.444-.578l-.658.04h-.276c.037.094.152.169.219.254Zm.444 1.582v.027a.888.888 0 0 0 .267 0l.618-.058c0-.093-.111-.142-.16-.213l-.307-.413c-.049-.067-.133-.12-.164-.2a1.977 1.977 0 0 0-.56.031.747.747 0 0 0-.244 0 .253.253 0 0 0-.116 0c.124.2.329.369.444.56.067.093.124.24.222.271Z"></path></g></g></svg>