<svg xmlns="http://www.w3.org/2000/svg" width="22.27" height="20.681" viewBox="0 0 22.27 20.681"><defs><linearGradient id="icon-weibo_svg__a" x1="1" y1="0.98" x2="-0.289" y2="-0.286" gradientUnits="objectBoundingBox"><stop offset="0" stop-color="#ff7b23"></stop><stop offset="1" stop-color="#ff330e"></stop></linearGradient><style>.icon-weibo_svg__c{fill:#fff}</style></defs><path d="M3.005 20.681a1 1 0 0 1-1-1v-7.8a.5.5 0 0 1-.145-.07l-1.522-1.06a.5.5 0 0 1 0-.821L1.86 8.871a.506.506 0 0 1 .145-.07V1a1 1 0 0 1 1-1h19.39v20.681Z" transform="rotate(180 11.197 10.34)" style="fill: url(&quot;#icon-weibo_svg__a&quot;);"></path><path transform="translate(3.796 3.991)" d="M0 0h13.062v13.062H0z" style="fill: none;"></path><path class="icon-weibo_svg__c" d="M13.564 11.35a1.419 1.419 0 0 0-1.016-.909c-.149-.014-.284-.1-.185-.27a.889.889 0 0 0-.07-1.036c-.351-.358-1.118-.223-1.661.008s-.512.07-.5-.088.309-1.1-.584-1.212c-1.17-.147-2.672 1.337-3.2 2.192a3.543 3.543 0 0 0-.675 2.163h.005c.1 1.206 1.83 2.167 3.955 2.167 1.828 0 3.367-.711 3.822-1.678a.06.06 0 0 1 .006-.011 1.472 1.472 0 0 0 .106-.319 1.866 1.866 0 0 0-.003-1.007Zm-4.189 2.487c-1.513 0-2.74-.833-2.74-1.859s1.226-1.859 2.74-1.859 2.74.833 2.74 1.859-1.228 1.859-2.741 1.859ZM13.101 9.718a.2.2 0 0 0 .086.019.221.221 0 0 0 .2-.14 1.135 1.135 0 0 0 .086-.438 1.11 1.11 0 0 0-1.1-1.12 1.07 1.07 0 0 0-.425.089.232.232 0 0 0-.118.3.222.222 0 0 0 .289.123.641.641 0 0 1 .253-.053.668.668 0 0 1 .6.925.228.228 0 0 0 .118.3Z"></path><path class="icon-weibo_svg__c" d="M12.372 6.638a2.542 2.542 0 0 0-.734.108.344.344 0 0 0-.225.425.333.333 0 0 0 .41.233h.005a1.879 1.879 0 0 1 .543-.08 1.927 1.927 0 0 1 1.9 1.947 2.041 2.041 0 0 1-.081.566.343.343 0 0 0 .222.425.323.323 0 0 0 .1.014.337.337 0 0 0 .32-.242 2.7 2.7 0 0 0 .11-.764 2.606 2.606 0 0 0-2.571-2.631ZM9.124 10.798a1.318 1.318 0 1 0 1.461 1.31 1.391 1.391 0 0 0-1.461-1.31Zm-.477 2.161a.525.525 0 1 1 .512-.537v.012a.519.519 0 0 1-.513.525Zm.958-.945a.2.2 0 0 1-.271.1.217.217 0 0 1-.052-.3.205.205 0 0 1 .271-.1.218.218 0 0 1 .05.3Z"></path></svg>