<svg xmlns="http://www.w3.org/2000/svg" width="229.711" height="12.999" viewBox="0 0 229.711 12.999" class=" absolute top-[50%] left-0 -translate-y-[50%] z-[0]"><defs><linearGradient id="icon-titleBg_svg__a" x1="0.033" y1="0.5" x2="0.899" y2="0.509" gradientUnits="objectBoundingBox"><stop offset="0" stop-color="#ff2442" stop-opacity="0"></stop><stop offset="0.297" stop-color="#ff3e58"></stop><stop offset="0.473" stop-color="#0bdabb"></stop><stop offset="1" stop-color="#ffbfc8" stop-opacity="0"></stop></linearGradient></defs><path d="M221.9 12 210.78 0h5.526l11.117 12Zm-11.952 0-11.12-12h5.526l11.117 12Zm-11.951 0L186.878 0h5.522l11.12 12Zm-11.952 0L174.926 0h5.526l11.116 12Zm-10.864 0-11.12-12h5.526L180.7 12Zm-11.951 0L152.11 0h5.526l11.117 12Zm-11.952 0-11.12-12h5.526L156.8 12Zm-11.951 0-11.12-12h5.526l11.116 12Zm-10.866 0L117.342 0h5.526l11.116 12Zm-11.951 0L105.39 0h5.526l11.117 12Zm-11.952 0L93.438 0h5.526l11.117 12ZM92.6 12 81.487 0h5.526L98.13 12Zm-10.861 0L70.622 0h5.526l11.117 12Zm-11.951 0L58.672 0H64.2l11.114 12Zm-11.952 0L46.72 0h5.526l11.116 12Zm-11.951 0L34.769 0h5.526l11.117 12Zm-10.866 0L23.9 0h5.526l11.119 12ZM23.07 12 11.953 0h5.526L28.6 12Zm-11.952 0L0 0h5.527l11.117 12Z" transform="translate(1.143 .499)" style="stroke: transparent; stroke-miterlimit: 10; opacity: 0.2; fill: url(&quot;#icon-titleBg_svg__a&quot;);"></path></svg>